<svg width="29" height="30" viewBox="0 0 29 30" fill="none" xmlns="http://www.w3.org/2000/svg">
<mask id="path-1-inside-1_0_38" fill="white">
<path d="M27.3636 12.0631C26.853 11.4285 26.144 10.9829 25.3498 10.7973C24.4672 10.5642 23.5296 10.6617 22.7142 11.0715C22.1508 11.3629 21.6041 11.6853 21.0764 12.0371V3.84626C21.0961 3.34937 21.0152 2.85362 20.8385 2.38863C20.6619 1.92364 20.3931 1.49895 20.0482 1.13993C19.7033 0.780906 19.2895 0.494924 18.8313 0.299067C18.3732 0.103209 17.8802 0.0014948 17.3818 0C16.3829 0.0293122 15.4356 0.44885 14.7438 1.16825C14.052 1.88766 13.6711 2.84937 13.6831 3.84626V5.49623C13.3727 5.42092 13.0547 5.38131 12.7353 5.37816C12.4926 5.37816 12.2509 5.39817 12.0122 5.43919L11.933 5.4512C11.7204 5.49122 11.5118 5.55126 11.3112 5.6283C11.2721 5.64331 11.236 5.66132 11.1979 5.67833C11.027 5.75058 10.8634 5.83904 10.7095 5.94249C10.6694 5.9685 10.6323 5.99952 10.5941 6.02754C10.4467 6.1356 10.3103 6.25767 10.187 6.39275C10.1739 6.40676 10.1579 6.41577 10.1449 6.43077C10.1138 6.46579 10.0947 6.50682 10.0656 6.54284C9.88553 6.77073 9.73523 7.02054 9.61833 7.28628C8.9179 6.99129 8.14129 6.92748 7.40193 7.10417C7.31768 7.12318 7.23946 7.1552 7.15822 7.18021L7.02684 7.22024C6.95913 6.39368 6.60692 5.61594 6.02996 5.01895C5.69578 4.69059 5.29961 4.43167 4.86441 4.25717C4.42921 4.08266 3.96363 3.99605 3.49464 4.00235C2.54582 4.03578 1.64808 4.4395 0.99461 5.12665C0.34114 5.81379 -0.0158236 6.72943 0.000538658 7.6765C0.000538658 8.36091 0.0195936 11.3787 0.0396516 14.2123L0.06673 18.0326C0.06673 18.5429 0.0727472 18.9661 0.0757559 19.2603V19.7216C0.0314863 21.1547 0.300677 22.5802 0.864605 23.899C1.42853 25.2178 2.27366 26.3982 3.34119 27.3581C5.43231 29.1157 8.09312 30.0539 10.8268 29.9976C12.2929 29.9766 13.7401 29.6637 15.0834 29.0773C16.4267 28.4909 17.639 27.6427 18.6494 26.5826C19.7858 25.3172 20.7659 23.9204 21.5689 22.4222C21.9038 21.7918 22.2899 21.1884 22.7232 20.6211C23.7999 19.4639 25.0074 18.4351 26.3216 17.5553C26.468 17.4552 26.6094 17.3492 26.7408 17.2551C27.1154 16.9662 27.4272 16.6044 27.6573 16.1915C27.8875 15.7787 28.0312 15.3236 28.0797 14.8537C28.21 13.8662 27.9535 12.8666 27.3636 12.0631ZM11.1889 9.67668C11.1879 9.44654 11.1989 9.21741 11.223 8.98928C11.223 8.93825 11.238 8.89722 11.244 8.84919C11.2611 8.72712 11.2811 8.61205 11.3052 8.50899C11.3384 8.36894 11.3837 8.23201 11.4406 8.09975C11.4566 8.06373 11.4727 8.02371 11.4897 7.99169C11.5369 7.89964 11.596 7.81459 11.6652 7.73754L11.6813 7.72253C11.7331 7.67009 11.791 7.62407 11.8538 7.58545C11.915 7.54506 11.9806 7.51182 12.0494 7.48639C12.1336 7.45437 12.2209 7.43036 12.3101 7.41435H12.3322C12.4648 7.39309 12.599 7.38271 12.7333 7.38333C12.9301 7.36828 13.1278 7.39833 13.3112 7.47116C13.4945 7.544 13.6588 7.6577 13.7914 7.80358C14.1715 8.3519 14.343 9.01729 14.2768 9.68068V12.7075C14.2768 15.0088 13.1154 15.0088 12.7333 15.0088C11.8859 15.0088 11.5048 14.8547 11.3293 14.3274C11.3172 14.2914 11.3042 14.2564 11.2952 14.2173C11.2706 14.1185 11.2522 14.0183 11.24 13.9172C11.24 13.8892 11.232 13.8631 11.229 13.8331C11.213 13.6801 11.2027 13.5266 11.1979 13.3728V13.3388C11.1919 13.1487 11.1899 12.9386 11.1899 12.7075L11.1889 9.67668ZM9.19711 9.31246C9.19711 9.43354 9.18307 9.5486 9.18307 9.67668V13.0557C9.17378 13.5737 9.21984 14.0913 9.32047 14.5996C9.07925 14.8027 8.78623 14.9351 8.47405 14.9819C8.16187 15.0288 7.84279 14.9882 7.55236 14.8647C7.23552 14.7321 6.96516 14.5087 6.77543 14.2229C6.58569 13.9371 6.48507 13.6016 6.48628 13.2588V10.7463C6.48636 10.5014 6.53851 10.2592 6.6393 10.0358C6.74009 9.81249 6.88721 9.613 7.07097 9.45055C7.16044 9.36748 7.2602 9.29619 7.36783 9.23842C7.40995 9.21441 7.45107 9.18939 7.4952 9.16838C7.56832 9.13589 7.64374 9.1088 7.72085 9.08733C7.76096 9.07232 7.80108 9.06032 7.8422 9.04931C8.07354 8.99528 8.31373 8.9908 8.54693 9.03616C8.78014 9.08152 9.00105 9.17569 9.19511 9.31246H9.19711ZM25.1572 15.9323V15.9293C23.7165 16.8982 22.3938 18.0312 21.2158 19.3053C20.6943 19.9677 20.233 20.6751 19.8359 21.4186C19.1122 22.7778 18.2288 24.0462 17.2043 25.1968C16.3812 26.0629 15.3934 26.7567 14.2986 27.2377C13.2038 27.7188 12.0239 27.9774 10.8278 27.9984C8.58231 28.0542 6.39305 27.2935 4.66803 25.8582C3.81295 25.0846 3.13843 24.1332 2.69205 23.0711C2.24567 22.0091 2.0383 20.8623 2.08456 19.7116V19.2523C2.08456 18.9571 2.07854 18.5349 2.07553 18.0236L2.04846 14.2043C2.0284 11.3627 2.00934 8.35791 2.00934 7.68251C1.99211 7.26556 2.13702 6.85809 2.4138 6.54522C2.69058 6.23235 3.07782 6.03827 3.49464 6.00352C3.69952 5.99604 3.90383 6.02955 4.09553 6.10207C4.28723 6.17458 4.46245 6.28465 4.61086 6.42577C4.76639 6.59334 4.88651 6.79045 4.96404 7.00533C5.04158 7.22022 5.07495 7.44848 5.06216 7.6765V8.76114C4.68485 9.35494 4.48387 10.0432 4.48249 10.7463V13.2678C4.48423 13.8165 4.60759 14.3581 4.84374 14.8537C5.07989 15.3493 5.42298 15.7867 5.84844 16.1345C5.84246 16.1649 5.83844 16.1956 5.8364 16.2265C5.85541 16.4911 5.9789 16.7372 6.17974 16.911C6.38058 17.0847 6.64234 17.1718 6.9075 17.1531C8.54751 17.0238 10.1934 16.9847 11.8377 17.036C12.4846 17.063 13.1094 17.114 13.6981 17.1881C13.6329 17.2171 13.5728 17.2411 13.5066 17.2721C11.1477 18.3172 9.09773 19.9497 7.55336 22.0129C7.47651 22.1197 7.4215 22.2405 7.39145 22.3685C7.3614 22.4964 7.35691 22.6291 7.37824 22.7588C7.42131 23.0207 7.56691 23.2549 7.78303 23.4097C7.99914 23.5646 8.26805 23.6274 8.53061 23.5845C8.79317 23.5415 9.02787 23.3962 9.18307 23.1806C10.5242 21.3985 12.3012 19.9895 14.344 19.0882C15.0281 18.7718 15.734 18.5044 16.4561 18.2877C16.7209 18.2087 16.9315 18.1547 17.0729 18.1206L17.2293 18.0846L17.2654 18.0766H17.2714C17.4738 18.0374 17.6591 17.9369 17.8022 17.7889C17.9453 17.6408 18.0391 17.4524 18.071 17.2492C18.1029 17.046 18.0713 16.838 17.9804 16.6534C17.8896 16.4688 17.7439 16.3166 17.5633 16.2175C16.9337 15.8885 16.2633 15.644 15.5695 15.4901C16.0658 14.6485 16.3118 13.6833 16.2786 12.7075V9.67668C16.316 8.75604 16.1106 7.84173 15.6829 7.02512V3.84626C15.6729 3.37947 15.844 2.92689 16.1606 2.58306C16.4772 2.23923 16.9147 2.03075 17.3818 2.00117C17.6172 2.00213 17.85 2.05174 18.0653 2.14688C18.2806 2.24203 18.4738 2.38064 18.6328 2.55399C18.7917 2.72733 18.913 2.93165 18.9888 3.15406C19.0647 3.37647 19.0936 3.61216 19.0737 3.84626V13.3518C19.0556 13.7351 19.18 14.1103 19.4227 14.4075C19.5727 14.5737 19.7669 14.6942 19.9826 14.7551C20.1984 14.816 20.4271 14.8148 20.6422 14.7517C20.8357 14.6946 21.0163 14.6036 21.1767 14.4825C21.2309 14.4435 21.277 14.4065 21.3071 14.3824L21.3472 14.3454L21.3583 14.3364C22.0583 13.7539 22.8248 13.2559 23.6419 12.8525C24.0214 12.668 24.4556 12.6285 24.8624 12.7415C25.2124 12.8165 25.5283 13.0006 25.765 13.2678C26.0438 13.656 26.1621 14.1363 26.0969 14.6096C26.0821 14.8079 26.0279 15.0013 25.9375 15.1786C25.8471 15.3558 25.7223 15.5134 25.5704 15.6422L25.1572 15.9323Z"/>
</mask>
<path d="M27.3636 12.0631C26.853 11.4285 26.144 10.9829 25.3498 10.7973C24.4672 10.5642 23.5296 10.6617 22.7142 11.0715C22.1508 11.3629 21.6041 11.6853 21.0764 12.0371V3.84626C21.0961 3.34937 21.0152 2.85362 20.8385 2.38863C20.6619 1.92364 20.3931 1.49895 20.0482 1.13993C19.7033 0.780906 19.2895 0.494924 18.8313 0.299067C18.3732 0.103209 17.8802 0.0014948 17.3818 0C16.3829 0.0293122 15.4356 0.44885 14.7438 1.16825C14.052 1.88766 13.6711 2.84937 13.6831 3.84626V5.49623C13.3727 5.42092 13.0547 5.38131 12.7353 5.37816C12.4926 5.37816 12.2509 5.39817 12.0122 5.43919L11.933 5.4512C11.7204 5.49122 11.5118 5.55126 11.3112 5.6283C11.2721 5.64331 11.236 5.66132 11.1979 5.67833C11.027 5.75058 10.8634 5.83904 10.7095 5.94249C10.6694 5.9685 10.6323 5.99952 10.5941 6.02754C10.4467 6.1356 10.3103 6.25767 10.187 6.39275C10.1739 6.40676 10.1579 6.41577 10.1449 6.43077C10.1138 6.46579 10.0947 6.50682 10.0656 6.54284C9.88553 6.77073 9.73523 7.02054 9.61833 7.28628C8.9179 6.99129 8.14129 6.92748 7.40193 7.10417C7.31768 7.12318 7.23946 7.1552 7.15822 7.18021L7.02684 7.22024C6.95913 6.39368 6.60692 5.61594 6.02996 5.01895C5.69578 4.69059 5.29961 4.43167 4.86441 4.25717C4.42921 4.08266 3.96363 3.99605 3.49464 4.00235C2.54582 4.03578 1.64808 4.4395 0.99461 5.12665C0.34114 5.81379 -0.0158236 6.72943 0.000538658 7.6765C0.000538658 8.36091 0.0195936 11.3787 0.0396516 14.2123L0.06673 18.0326C0.06673 18.5429 0.0727472 18.9661 0.0757559 19.2603V19.7216C0.0314863 21.1547 0.300677 22.5802 0.864605 23.899C1.42853 25.2178 2.27366 26.3982 3.34119 27.3581C5.43231 29.1157 8.09312 30.0539 10.8268 29.9976C12.2929 29.9766 13.7401 29.6637 15.0834 29.0773C16.4267 28.4909 17.639 27.6427 18.6494 26.5826C19.7858 25.3172 20.7659 23.9204 21.5689 22.4222C21.9038 21.7918 22.2899 21.1884 22.7232 20.6211C23.7999 19.4639 25.0074 18.4351 26.3216 17.5553C26.468 17.4552 26.6094 17.3492 26.7408 17.2551C27.1154 16.9662 27.4272 16.6044 27.6573 16.1915C27.8875 15.7787 28.0312 15.3236 28.0797 14.8537C28.21 13.8662 27.9535 12.8666 27.3636 12.0631ZM11.1889 9.67668C11.1879 9.44654 11.1989 9.21741 11.223 8.98928C11.223 8.93825 11.238 8.89722 11.244 8.84919C11.2611 8.72712 11.2811 8.61205 11.3052 8.50899C11.3384 8.36894 11.3837 8.23201 11.4406 8.09975C11.4566 8.06373 11.4727 8.02371 11.4897 7.99169C11.5369 7.89964 11.596 7.81459 11.6652 7.73754L11.6813 7.72253C11.7331 7.67009 11.791 7.62407 11.8538 7.58545C11.915 7.54506 11.9806 7.51182 12.0494 7.48639C12.1336 7.45437 12.2209 7.43036 12.3101 7.41435H12.3322C12.4648 7.39309 12.599 7.38271 12.7333 7.38333C12.9301 7.36828 13.1278 7.39833 13.3112 7.47116C13.4945 7.544 13.6588 7.6577 13.7914 7.80358C14.1715 8.3519 14.343 9.01729 14.2768 9.68068V12.7075C14.2768 15.0088 13.1154 15.0088 12.7333 15.0088C11.8859 15.0088 11.5048 14.8547 11.3293 14.3274C11.3172 14.2914 11.3042 14.2564 11.2952 14.2173C11.2706 14.1185 11.2522 14.0183 11.24 13.9172C11.24 13.8892 11.232 13.8631 11.229 13.8331C11.213 13.6801 11.2027 13.5266 11.1979 13.3728V13.3388C11.1919 13.1487 11.1899 12.9386 11.1899 12.7075L11.1889 9.67668ZM9.19711 9.31246C9.19711 9.43354 9.18307 9.5486 9.18307 9.67668V13.0557C9.17378 13.5737 9.21984 14.0913 9.32047 14.5996C9.07925 14.8027 8.78623 14.9351 8.47405 14.9819C8.16187 15.0288 7.84279 14.9882 7.55236 14.8647C7.23552 14.7321 6.96516 14.5087 6.77543 14.2229C6.58569 13.9371 6.48507 13.6016 6.48628 13.2588V10.7463C6.48636 10.5014 6.53851 10.2592 6.6393 10.0358C6.74009 9.81249 6.88721 9.613 7.07097 9.45055C7.16044 9.36748 7.2602 9.29619 7.36783 9.23842C7.40995 9.21441 7.45107 9.18939 7.4952 9.16838C7.56832 9.13589 7.64374 9.1088 7.72085 9.08733C7.76096 9.07232 7.80108 9.06032 7.8422 9.04931C8.07354 8.99528 8.31373 8.9908 8.54693 9.03616C8.78014 9.08152 9.00105 9.17569 9.19511 9.31246H9.19711ZM25.1572 15.9323V15.9293C23.7165 16.8982 22.3938 18.0312 21.2158 19.3053C20.6943 19.9677 20.233 20.6751 19.8359 21.4186C19.1122 22.7778 18.2288 24.0462 17.2043 25.1968C16.3812 26.0629 15.3934 26.7567 14.2986 27.2377C13.2038 27.7188 12.0239 27.9774 10.8278 27.9984C8.58231 28.0542 6.39305 27.2935 4.66803 25.8582C3.81295 25.0846 3.13843 24.1332 2.69205 23.0711C2.24567 22.0091 2.0383 20.8623 2.08456 19.7116V19.2523C2.08456 18.9571 2.07854 18.5349 2.07553 18.0236L2.04846 14.2043C2.0284 11.3627 2.00934 8.35791 2.00934 7.68251C1.99211 7.26556 2.13702 6.85809 2.4138 6.54522C2.69058 6.23235 3.07782 6.03827 3.49464 6.00352C3.69952 5.99604 3.90383 6.02955 4.09553 6.10207C4.28723 6.17458 4.46245 6.28465 4.61086 6.42577C4.76639 6.59334 4.88651 6.79045 4.96404 7.00533C5.04158 7.22022 5.07495 7.44848 5.06216 7.6765V8.76114C4.68485 9.35494 4.48387 10.0432 4.48249 10.7463V13.2678C4.48423 13.8165 4.60759 14.3581 4.84374 14.8537C5.07989 15.3493 5.42298 15.7867 5.84844 16.1345C5.84246 16.1649 5.83844 16.1956 5.8364 16.2265C5.85541 16.4911 5.9789 16.7372 6.17974 16.911C6.38058 17.0847 6.64234 17.1718 6.9075 17.1531C8.54751 17.0238 10.1934 16.9847 11.8377 17.036C12.4846 17.063 13.1094 17.114 13.6981 17.1881C13.6329 17.2171 13.5728 17.2411 13.5066 17.2721C11.1477 18.3172 9.09773 19.9497 7.55336 22.0129C7.47651 22.1197 7.4215 22.2405 7.39145 22.3685C7.3614 22.4964 7.35691 22.6291 7.37824 22.7588C7.42131 23.0207 7.56691 23.2549 7.78303 23.4097C7.99914 23.5646 8.26805 23.6274 8.53061 23.5845C8.79317 23.5415 9.02787 23.3962 9.18307 23.1806C10.5242 21.3985 12.3012 19.9895 14.344 19.0882C15.0281 18.7718 15.734 18.5044 16.4561 18.2877C16.7209 18.2087 16.9315 18.1547 17.0729 18.1206L17.2293 18.0846L17.2654 18.0766H17.2714C17.4738 18.0374 17.6591 17.9369 17.8022 17.7889C17.9453 17.6408 18.0391 17.4524 18.071 17.2492C18.1029 17.046 18.0713 16.838 17.9804 16.6534C17.8896 16.4688 17.7439 16.3166 17.5633 16.2175C16.9337 15.8885 16.2633 15.644 15.5695 15.4901C16.0658 14.6485 16.3118 13.6833 16.2786 12.7075V9.67668C16.316 8.75604 16.1106 7.84173 15.6829 7.02512V3.84626C15.6729 3.37947 15.844 2.92689 16.1606 2.58306C16.4772 2.23923 16.9147 2.03075 17.3818 2.00117C17.6172 2.00213 17.85 2.05174 18.0653 2.14688C18.2806 2.24203 18.4738 2.38064 18.6328 2.55399C18.7917 2.72733 18.913 2.93165 18.9888 3.15406C19.0647 3.37647 19.0936 3.61216 19.0737 3.84626V13.3518C19.0556 13.7351 19.18 14.1103 19.4227 14.4075C19.5727 14.5737 19.7669 14.6942 19.9826 14.7551C20.1984 14.816 20.4271 14.8148 20.6422 14.7517C20.8357 14.6946 21.0163 14.6036 21.1767 14.4825C21.2309 14.4435 21.277 14.4065 21.3071 14.3824L21.3472 14.3454L21.3583 14.3364C22.0583 13.7539 22.8248 13.2559 23.6419 12.8525C24.0214 12.668 24.4556 12.6285 24.8624 12.7415C25.2124 12.8165 25.5283 13.0006 25.765 13.2678C26.0438 13.656 26.1621 14.1363 26.0969 14.6096C26.0821 14.8079 26.0279 15.0013 25.9375 15.1786C25.8471 15.3558 25.7223 15.5134 25.5704 15.6422L25.1572 15.9323Z" fill="#BBA9EF" stroke="black" stroke-width="2" mask="url(#path-1-inside-1_0_38)"/>
</svg>
