<svg width="42" height="33" viewBox="0 0 42 33" fill="none" xmlns="http://www.w3.org/2000/svg">
<path d="M20.8778 27.9901L20.8756 27.988C20.6207 27.7416 20.5002 27.4644 20.5002 27.1117C20.5002 26.7586 20.6188 26.4836 20.879 26.229C21.1221 25.9925 21.4298 25.864 21.8353 25.864C22.1862 25.864 22.4565 25.9728 22.7269 26.2314C22.9854 26.4853 23.1033 26.7597 23.1033 27.1117C23.1033 27.4644 22.9827 27.7416 22.7278 27.988L22.7256 27.9901C22.462 28.2466 22.1923 28.3562 21.8353 28.3562C21.4311 28.3562 21.1231 28.2287 20.8778 27.9901ZM28.8269 17.1736C28.8936 17.6522 28.9289 18.0138 28.9401 18.2715L27.7303 18.7001L29.1863 19.8214C30.7125 20.9968 31.4 22.3355 31.4 23.8705C31.4 24.987 31.2192 25.9618 30.8755 26.8074C30.51 27.69 30.0688 28.3715 29.5753 28.8767C29.1531 29.3001 28.649 29.6905 28.0724 30.0351C28.1008 29.9988 28.1286 29.9621 28.1559 29.9248C28.8062 29.0376 29.1024 27.961 29.1024 26.7625C29.1024 25.1396 28.2169 23.858 26.7456 22.9274C25.9663 22.4061 25.0146 22.0841 24.0228 21.975C23.0661 21.8651 21.6681 21.8698 19.8747 21.9703L19.8736 21.9704C18.0953 22.072 16.8958 22.1163 16.2694 22.1163C15.4014 22.1163 14.4602 22.0876 13.2728 22.0211L13.2713 22.0211C12.0628 21.9552 11.1105 21.9138 10.4177 21.8922L10.4083 21.8919L10.3989 21.8918C9.59498 21.8819 8.7917 21.9455 8.0083 22.0818C7.16492 22.2109 6.36019 22.491 5.67221 22.9133L5.6649 22.9178L5.65766 22.9224C4.22933 23.8333 3.36706 25.1188 3.36706 26.7625C3.36706 27.9557 3.65426 29.0312 4.29674 29.9196C4.33978 29.9792 4.38414 30.0375 4.42978 30.0945C3.80984 29.7357 3.27088 29.3244 2.82401 28.876C2.32987 28.3724 1.8908 27.6919 1.52452 26.8075C1.18083 25.9619 1 24.9871 1 23.8705C1 22.3352 1.68783 20.9951 3.21326 19.8217L4.67094 18.7005L3.46037 18.2717C3.4719 18.0139 3.50766 17.6523 3.57524 17.1736L3.57788 17.1549L3.57981 17.1362C3.66773 16.2814 3.90826 15.4311 4.30121 14.6048C6.17763 14.8628 8.50912 15.6541 11.3247 17.0291L11.6191 17.1728L11.9415 17.1145C12.9368 16.9345 14.3398 16.8305 16.2 16.8305C18.1519 16.8305 19.5527 16.9355 20.4435 17.1129L20.7702 17.1779L21.0706 17.0341C22.4927 16.3534 23.841 15.8042 25.1212 15.3892C26.4751 14.9607 27.3619 14.7367 27.8623 14.6817L27.8872 14.6789L27.9119 14.6749L28.1218 14.6411C28.4884 15.4152 28.7217 16.2491 28.8236 17.1481L28.8251 17.1609L28.8269 17.1736ZM11.5267 27.988L11.5267 27.988L11.5226 27.9919C11.2628 28.246 10.9921 28.3562 10.6365 28.3562C10.2309 28.3562 9.92383 28.2293 9.67483 27.9883L9.67446 27.988C9.41957 27.7416 9.29903 27.4644 9.29903 27.1117C9.29903 26.759 9.41742 26.4842 9.67693 26.2298C9.9236 25.9915 10.2302 25.864 10.6365 25.864C10.9864 25.864 11.2579 25.9736 11.5249 26.2305C11.7839 26.4847 11.9021 26.7593 11.9021 27.1117C11.9021 27.4644 11.7816 27.7416 11.5267 27.988Z" fill="#BBA9EF" stroke="#BBA9EF" stroke-width="2"/>
<g clip-path="url(#clip0_61_284)">
<path d="M38.1913 5.93281C38.1155 5.91581 38.0332 5.92074 37.9625 5.94653C37.8918 5.97232 37.8386 6.01684 37.8145 6.07031C37.7904 6.12377 37.7974 6.1818 37.8339 6.23163C37.8705 6.28146 37.9337 6.319 38.0095 6.336C40.3543 6.86273 41.4001 7.64838 41.4001 8.88462C41.4001 9.98419 39.9775 10.8375 39.1303 11.2488C39.0902 11.2682 39.0573 11.2942 39.0346 11.3246C39.012 11.355 39.0001 11.3888 39.0001 11.4231V13.0405C38.2797 12.8478 37.6361 12.535 37.1245 12.1288C37.0898 12.1015 37.0457 12.081 36.9965 12.0693C36.9474 12.0575 36.8947 12.0548 36.8437 12.0615C36.6727 12.0848 36.4981 12.1178 36.3211 12.1512C36.0151 12.2092 35.6995 12.2692 35.4001 12.2692C33.8593 12.2692 32.7805 12.0357 31.6777 11.4641C31.6135 11.4308 31.5333 11.4169 31.4546 11.4254C31.3759 11.4338 31.3052 11.464 31.258 11.5092C31.2108 11.5544 31.191 11.611 31.203 11.6665C31.215 11.722 31.2577 11.7718 31.3219 11.8051C32.5381 12.4355 33.7195 12.6923 35.4001 12.6923C35.7787 12.6923 36.1339 12.625 36.4771 12.5599C36.5839 12.5392 36.6901 12.5188 36.7951 12.5015C37.9165 13.3367 39.1849 13.5266 39.2401 13.5342C39.2837 13.5406 39.3287 13.54 39.3719 13.5325C39.4151 13.5249 39.4554 13.5106 39.4897 13.4907C39.5242 13.4709 39.552 13.4459 39.5711 13.4176C39.5902 13.3893 39.6001 13.3583 39.6001 13.3269V11.5335C41.1493 10.7546 42.0001 9.81708 42.0001 8.88462C42.0001 7.45419 40.7899 6.51623 38.1913 5.93281Z" fill="#BBA9EF"/>
<path d="M36.6 5.71154C36.6 2.45554 32.3892 0 26.8062 0C21.195 0 16.8 2.50927 16.8 5.71238C16.8 7.63273 18.7266 9.00858 20.4 9.84119V12.6487C20.4004 12.684 20.4131 12.7186 20.4371 12.7495C20.4611 12.7804 20.4957 12.8066 20.5377 12.8257C20.5796 12.8449 20.6277 12.8564 20.6775 12.8591C20.7273 12.8619 20.7773 12.8559 20.823 12.8417C20.9106 12.8142 22.9584 12.158 24.7104 10.8071C25.4694 10.9065 26.328 11.0021 27.1068 11.0021C32.7846 11.0021 36.6 8.87573 36.6 5.71154ZM27.1062 10.579C26.3202 10.579 25.4268 10.4728 24.6564 10.3692C24.6054 10.3626 24.5528 10.3653 24.5036 10.3771C24.4545 10.3888 24.4104 10.4093 24.3756 10.4365C23.1456 11.4146 21.7002 12.0361 21 12.3039V9.73077C21 9.69645 20.9882 9.66264 20.9655 9.63228C20.9428 9.60191 20.91 9.57589 20.8698 9.55646C19.287 8.78858 17.4 7.49904 17.4 5.71238C17.4 2.74619 21.5316 0.423077 26.8062 0.423077C32.0478 0.423077 36 2.69669 36 5.71154C36 8.62315 32.4258 10.579 27.1062 10.579Z" fill="#BBA9EF"/>
<path d="M26.7 4.86538C26.0382 4.86538 25.5 5.24488 25.5 5.71154C25.5 6.17819 26.0382 6.55769 26.7 6.55769C27.3618 6.55769 27.9 6.17819 27.9 5.71154C27.9 5.24488 27.3618 4.86538 26.7 4.86538ZM26.7 6.13461C26.5456 6.12974 26.3997 6.08304 26.2928 6.00423C26.1859 5.92542 26.1263 5.82058 26.1263 5.71154C26.1263 5.60249 26.1859 5.49765 26.2928 5.41884C26.3997 5.34004 26.5456 5.29333 26.7 5.28846C26.8545 5.29333 27.0004 5.34004 27.1073 5.41884C27.2142 5.49765 27.2738 5.60249 27.2738 5.71154C27.2738 5.82058 27.2142 5.92542 27.1073 6.00423C27.0004 6.08304 26.8545 6.12974 26.7 6.13461ZM30.9 4.86538C30.2382 4.86538 29.7 5.24488 29.7 5.71154C29.7 6.17819 30.2382 6.55769 30.9 6.55769C31.5618 6.55769 32.1 6.17819 32.1 5.71154C32.1 5.24488 31.5618 4.86538 30.9 4.86538ZM30.9 6.13461C30.7456 6.12974 30.5997 6.08304 30.4928 6.00423C30.3859 5.92542 30.3263 5.82058 30.3263 5.71154C30.3263 5.60249 30.3859 5.49765 30.4928 5.41884C30.5997 5.34004 30.7456 5.29333 30.9 5.28846C31.0545 5.29333 31.2004 5.34004 31.3073 5.41884C31.4142 5.49765 31.4738 5.60249 31.4738 5.71154C31.4738 5.82058 31.4142 5.92542 31.3073 6.00423C31.2004 6.08304 31.0545 6.12974 30.9 6.13461ZM22.5 4.90558C21.8382 4.90558 21.3 5.28508 21.3 5.75173C21.3 6.21838 21.8382 6.59788 22.5 6.59788C23.1618 6.59788 23.7 6.21838 23.7 5.75173C23.7 5.28508 23.1618 4.90558 22.5 4.90558ZM22.5 6.17481C22.3456 6.16993 22.1997 6.12323 22.0928 6.04442C21.9859 5.96561 21.9263 5.86077 21.9263 5.75173C21.9263 5.64269 21.9859 5.53785 22.0928 5.45904C22.1997 5.38023 22.3456 5.33353 22.5 5.32865C22.6545 5.33353 22.8004 5.38023 22.9073 5.45904C23.0142 5.53785 23.0738 5.64269 23.0738 5.75173C23.0738 5.86077 23.0142 5.96561 22.9073 6.04442C22.8004 6.12323 22.6545 6.16993 22.5 6.17481Z" fill="#BBA9EF"/>
</g>
<defs>
<clipPath id="clip0_61_284">
<rect width="25.2" height="13.5385" fill="white" transform="translate(16.8)"/>
</clipPath>
</defs>
</svg>
