<svg width="35" height="39" viewBox="0 0 35 39" fill="none" xmlns="http://www.w3.org/2000/svg">
<path d="M18.7112 33.3371L18.7094 33.3395C18.4742 33.6639 18.3163 33.6937 18.1961 33.6937C18.0278 33.6937 17.8405 33.6343 17.6268 33.3395L17.6251 33.3371C17.396 33.0231 17.2501 32.6049 17.2501 32.0411C17.2501 31.4763 17.3946 31.0611 17.6278 30.7375C17.8398 30.445 18.0269 30.3847 18.1961 30.3847C18.3114 30.3847 18.4696 30.4137 18.7104 30.7404C18.9425 31.0636 19.0861 31.478 19.0861 32.0411C19.0861 32.6049 18.9402 33.0231 18.7112 33.3371ZM23.8525 20.2307C23.9233 20.9502 23.9545 21.4705 23.9534 21.8103L23.1998 22.1889L24.0928 23.1642C25.3557 24.5436 26 26.2063 26 28.2106C26 29.5842 25.8427 30.7963 25.5399 31.8525C25.2233 32.9369 24.8409 33.7728 24.4185 34.3859C24.1443 34.7758 23.8331 35.137 23.4896 35.4645C24.1214 34.4304 24.4186 33.1262 24.4186 31.6284C24.4186 29.9354 23.7754 28.4857 22.5116 27.3516C21.8416 26.7166 20.9951 26.2999 20.0835 26.1574C19.2355 26.0194 18.0298 26.0288 16.5296 26.1481L16.5281 26.1482C15.047 26.2681 14.0618 26.3193 13.5579 26.3193C12.848 26.3193 12.0748 26.286 11.0932 26.2081L11.0911 26.2079C10.0812 26.1299 9.28281 26.0806 8.69966 26.0548L8.68631 26.0542L8.67295 26.054C7.96881 26.0417 7.26606 26.1206 6.58212 26.2888C5.81372 26.4565 5.09991 26.8155 4.5062 27.3323L4.49905 27.3385L4.49202 27.3449C3.26755 28.4523 2.63921 29.9045 2.63921 31.6284C2.63921 33.1709 2.94751 34.5119 3.61669 35.5632C3.23059 35.2101 2.88319 34.8152 2.58104 34.3852C2.15788 33.7736 1.77723 32.9387 1.46009 31.8523C1.15724 30.7962 1 29.5842 1 28.2106C1 26.2059 1.64452 24.5416 2.90678 23.1647L3.80092 22.1893L3.04681 21.8105C3.04601 21.4706 3.07763 20.95 3.1493 20.2299L3.15062 20.2166L3.15159 20.2032C3.22763 19.1549 3.43277 18.1213 3.76155 17.1257C5.20495 17.4639 7.0193 18.3518 9.23357 19.8854L9.60904 20.1454L10.0514 20.0319C10.8359 19.8307 11.9673 19.7087 13.5 19.7087C15.1137 19.7087 16.2369 19.8327 16.9273 20.0276L17.3754 20.1541L17.7606 19.8926C18.9373 19.0939 20.0467 18.4537 21.0936 17.9723C22.2022 17.4747 22.8925 17.2311 23.2574 17.1683C23.5654 18.1061 23.7636 19.1199 23.8509 20.2125L23.8516 20.2216L23.8525 20.2307ZM3.06223 22.111C3.06214 22.1106 3.06205 22.1101 3.06196 22.1096L3.06223 22.111ZM9.37686 33.3371L9.3737 33.3415C9.14165 33.6632 8.98272 33.6937 8.86371 33.6937C8.69428 33.6937 8.50784 33.635 8.29105 33.3375L8.29077 33.3371C8.06172 33.0231 7.91586 32.6049 7.91586 32.0411C7.91586 31.477 8.05997 31.0622 8.29268 30.7387C8.50747 30.4443 8.69358 30.3847 8.86371 30.3847C8.97787 30.3847 9.13739 30.4144 9.37546 30.7394C9.60789 31.0628 9.75179 31.4774 9.75179 32.0411C9.75179 32.6049 9.60593 33.0231 9.37686 33.3371Z" fill="#BBA9EF" stroke="black" stroke-width="2"/>
<g clip-path="url(#clip0_51_197)">
<path d="M31.826 7.0115C31.7628 6.99141 31.6942 6.99724 31.6353 7.02772C31.5764 7.05819 31.5321 7.11081 31.512 7.174C31.4919 7.23719 31.4977 7.30577 31.5282 7.36466C31.5587 7.42354 31.6113 7.46791 31.6745 7.488C33.6285 8.1105 34.5 9.039 34.5 10.5C34.5 11.7995 33.3145 12.808 32.6085 13.294C32.575 13.317 32.5477 13.3477 32.5288 13.3836C32.5099 13.4195 32.5 13.4594 32.5 13.5V15.4115C31.8996 15.1838 31.3634 14.8141 30.937 14.334C30.9081 14.3018 30.8714 14.2776 30.8304 14.2637C30.7894 14.2497 30.7455 14.2466 30.703 14.2545C30.5605 14.282 30.415 14.321 30.2675 14.3605C30.0125 14.429 29.7495 14.5 29.5 14.5C28.216 14.5 27.317 14.224 26.398 13.5485C26.3445 13.5092 26.2777 13.4927 26.2121 13.5027C26.1465 13.5127 26.0876 13.5483 26.0482 13.6018C26.0089 13.6552 25.9924 13.7221 26.0024 13.7877C26.0124 13.8532 26.048 13.9122 26.1015 13.9515C27.115 14.6965 28.0995 15 29.5 15C29.8155 15 30.1115 14.9205 30.3975 14.8435C30.4865 14.819 30.575 14.795 30.6625 14.7745C31.597 15.7615 32.654 15.986 32.7 15.995C32.7363 16.0026 32.7738 16.0018 32.8098 15.9929C32.8458 15.984 32.8794 15.9671 32.908 15.9435C32.9368 15.9201 32.9599 15.8906 32.9759 15.8572C32.9918 15.8237 33 15.7871 33 15.75V13.6305C34.291 12.71 35 11.602 35 10.5C35 8.8095 33.9915 7.701 31.826 7.0115Z" fill="black"/>
<path d="M30.5 6.75C30.5 2.902 26.991 0 22.3385 0C17.6625 0 14 2.9655 14 6.751C14 9.0205 15.6055 10.6465 17 11.6305V14.9485C17.0003 14.9901 17.0109 15.0311 17.0309 15.0676C17.0509 15.1041 17.0797 15.1351 17.1147 15.1577C17.1496 15.1803 17.1897 15.1939 17.2312 15.1972C17.2727 15.2004 17.3144 15.1933 17.3525 15.1765C17.4255 15.144 19.132 14.3685 20.592 12.772C21.2245 12.8895 21.94 13.0025 22.589 13.0025C27.3205 13.0025 30.5 10.4895 30.5 6.75ZM22.5885 12.5025C21.9335 12.5025 21.189 12.377 20.547 12.2545C20.5045 12.2467 20.4606 12.2499 20.4197 12.2638C20.3787 12.2777 20.342 12.3019 20.313 12.334C19.288 13.49 18.0835 14.2245 17.5 14.541V11.5C17.5 11.4594 17.4901 11.4195 17.4712 11.3836C17.4523 11.3477 17.4249 11.317 17.3915 11.294C16.0725 10.3865 14.5 8.8625 14.5 6.751C14.5 3.2455 17.943 0.5 22.3385 0.5C26.7065 0.5 30 3.187 30 6.75C30 10.191 27.0215 12.5025 22.5885 12.5025Z" fill="black"/>
<path d="M22.25 5.75C21.6985 5.75 21.25 6.1985 21.25 6.75C21.25 7.3015 21.6985 7.75 22.25 7.75C22.8015 7.75 23.25 7.3015 23.25 6.75C23.25 6.1985 22.8015 5.75 22.25 5.75ZM22.25 7.25C22.1213 7.24424 21.9997 7.18905 21.9106 7.09591C21.8216 7.00277 21.7719 6.87887 21.7719 6.75C21.7719 6.62113 21.8216 6.49723 21.9106 6.40409C21.9997 6.31095 22.1213 6.25576 22.25 6.25C22.3787 6.25576 22.5003 6.31095 22.5894 6.40409C22.6784 6.49723 22.7281 6.62113 22.7281 6.75C22.7281 6.87887 22.6784 7.00277 22.5894 7.09591C22.5003 7.18905 22.3787 7.24424 22.25 7.25ZM25.75 5.75C25.1985 5.75 24.75 6.1985 24.75 6.75C24.75 7.3015 25.1985 7.75 25.75 7.75C26.3015 7.75 26.75 7.3015 26.75 6.75C26.75 6.1985 26.3015 5.75 25.75 5.75ZM25.75 7.25C25.6213 7.24424 25.4997 7.18905 25.4106 7.09591C25.3216 7.00277 25.2719 6.87887 25.2719 6.75C25.2719 6.62113 25.3216 6.49723 25.4106 6.40409C25.4997 6.31095 25.6213 6.25576 25.75 6.25C25.8787 6.25576 26.0003 6.31095 26.0894 6.40409C26.1784 6.49723 26.2281 6.62113 26.2281 6.75C26.2281 6.87887 26.1784 7.00277 26.0894 7.09591C26.0003 7.18905 25.8787 7.24424 25.75 7.25ZM18.75 5.7975C18.1985 5.7975 17.75 6.246 17.75 6.7975C17.75 7.349 18.1985 7.7975 18.75 7.7975C19.3015 7.7975 19.75 7.349 19.75 6.7975C19.75 6.246 19.3015 5.7975 18.75 5.7975ZM18.75 7.2975C18.6213 7.29174 18.4997 7.23655 18.4106 7.14341C18.3216 7.05027 18.2719 6.92637 18.2719 6.7975C18.2719 6.66863 18.3216 6.54473 18.4106 6.45159C18.4997 6.35845 18.6213 6.30326 18.75 6.2975C18.8787 6.30326 19.0003 6.35845 19.0894 6.45159C19.1784 6.54473 19.2281 6.66863 19.2281 6.7975C19.2281 6.92637 19.1784 7.05027 19.0894 7.14341C19.0003 7.23655 18.8787 7.29174 18.75 7.2975Z" fill="black"/>
</g>
<defs>
<clipPath id="clip0_51_197">
<rect width="21" height="16" fill="white" transform="translate(14)"/>
</clipPath>
</defs>
</svg>
