<svg width="29" height="30" viewBox="0 0 29 30" fill="none" xmlns="http://www.w3.org/2000/svg">
<mask id="path-1-inside-1_42_58" fill="white">
<path d="M27.3006 12.0631C26.7911 11.4285 26.0837 10.9829 25.2914 10.7973C24.4108 10.5642 23.4754 10.6617 22.6618 11.0715C22.0998 11.3629 21.5543 11.6853 21.0279 12.0371V3.84626C21.0475 3.34937 20.9668 2.85362 20.7905 2.38863C20.6143 1.92364 20.3461 1.49895 20.002 1.13993C19.6579 0.780906 19.245 0.494924 18.7879 0.299067C18.3309 0.103209 17.839 0.0014948 17.3417 0C16.3452 0.0293122 15.4 0.44885 14.7098 1.16825C14.0196 1.88766 13.6396 2.84937 13.6515 3.84626V5.49623C13.3419 5.42092 13.0247 5.38131 12.706 5.37816C12.4639 5.37816 12.2227 5.39817 11.9846 5.43919L11.9055 5.4512C11.6934 5.49122 11.4853 5.55126 11.2852 5.6283C11.2461 5.64331 11.2101 5.66132 11.1721 5.67833C11.0016 5.75058 10.8384 5.83904 10.6848 5.94249C10.6448 5.9685 10.6078 5.99952 10.5697 6.02754C10.4227 6.1356 10.2866 6.25767 10.1635 6.39275C10.1505 6.40676 10.1345 6.41577 10.1215 6.43077C10.0905 6.46579 10.0714 6.50682 10.0424 6.54284C9.86275 6.77073 9.7128 7.02054 9.59617 7.28628C8.89735 6.99129 8.12253 6.92748 7.38487 7.10417C7.30082 7.12318 7.22278 7.1552 7.14173 7.18021L7.01065 7.22024C6.94309 6.39368 6.5917 5.61594 6.01607 5.01895C5.68265 4.69059 5.2874 4.43167 4.8532 4.25717C4.419 4.08266 3.95449 3.99605 3.48658 4.00235C2.53995 4.03578 1.64428 4.4395 0.992318 5.12665C0.340354 5.81379 -0.0157871 6.72943 0.000537416 7.6765C0.000537416 8.36091 0.0195485 11.3787 0.0395602 14.2123L0.0665763 18.0326C0.0665763 18.5429 0.0725796 18.9661 0.0755814 19.2603V19.7216C0.0314138 21.1547 0.299985 22.5802 0.862613 23.899C1.42524 25.2178 2.26842 26.3982 3.33349 27.3581C5.41979 29.1157 8.07447 30.0539 10.8019 29.9976C12.2646 29.9766 13.7084 29.6637 15.0486 29.0773C16.3888 28.4909 17.5984 27.6427 18.6065 26.5826C19.7402 25.3172 20.7181 23.9204 21.5192 22.4222C21.8534 21.7918 22.2386 21.1884 22.6708 20.6211C23.7451 19.4639 24.9498 18.4351 26.2609 17.5553C26.407 17.4552 26.5481 17.3492 26.6792 17.2551C27.0529 16.9662 27.364 16.6044 27.5936 16.1915C27.8232 15.7787 27.9666 15.3236 28.015 14.8537C28.145 13.8662 27.8891 12.8666 27.3006 12.0631ZM11.1631 9.67668C11.1621 9.44654 11.1731 9.21741 11.1971 8.98928C11.1971 8.93825 11.2121 8.89722 11.2181 8.84919C11.2351 8.72712 11.2551 8.61205 11.2792 8.50899C11.3123 8.36894 11.3575 8.23201 11.4142 8.09975C11.4302 8.06373 11.4463 8.02371 11.4633 7.99169C11.5103 7.89964 11.5693 7.81459 11.6384 7.73754L11.6544 7.72253C11.706 7.67009 11.7638 7.62407 11.8265 7.58545C11.8875 7.54506 11.953 7.51182 12.0216 7.48639C12.1056 7.45437 12.1927 7.43036 12.2817 7.41435H12.3038C12.4361 7.39309 12.57 7.38271 12.704 7.38333C12.9003 7.36828 13.0975 7.39833 13.2805 7.47116C13.4634 7.544 13.6273 7.6577 13.7596 7.80358C14.1388 8.3519 14.3099 9.01729 14.2439 9.68068V12.7075C14.2439 15.0088 13.0852 15.0088 12.704 15.0088C11.8585 15.0088 11.4783 14.8547 11.3032 14.3274C11.2912 14.2914 11.2782 14.2564 11.2692 14.2173C11.2446 14.1185 11.2262 14.0183 11.2141 13.9172C11.2141 13.8892 11.2061 13.8631 11.2031 13.8331C11.1872 13.6801 11.1769 13.5266 11.1721 13.3728V13.3388C11.1661 13.1487 11.1641 12.9386 11.1641 12.7075L11.1631 9.67668ZM9.17592 9.31246C9.17592 9.43354 9.16191 9.5486 9.16191 9.67668V13.0557C9.15264 13.5737 9.1986 14.0913 9.29899 14.5996C9.05833 14.8027 8.76599 14.9351 8.45452 14.9819C8.14306 15.0288 7.82472 14.9882 7.53496 14.8647C7.21884 14.7321 6.94911 14.5087 6.75981 14.2229C6.57052 13.9371 6.47013 13.6016 6.47133 13.2588V10.7463C6.47141 10.5014 6.52345 10.2592 6.624 10.0358C6.72456 9.81249 6.87135 9.613 7.05468 9.45055C7.14394 9.36748 7.24347 9.29619 7.35085 9.23842C7.39287 9.21441 7.4339 9.18939 7.47793 9.16838C7.55088 9.13589 7.62613 9.1088 7.70306 9.08733C7.74308 9.07232 7.7831 9.06032 7.82413 9.04931C8.05494 8.99528 8.29457 8.9908 8.52724 9.03616C8.75991 9.08152 8.98031 9.17569 9.17392 9.31246H9.17592ZM25.0993 15.9323V15.9293C23.6619 16.8982 22.3422 18.0312 21.167 19.3053C20.6467 19.9677 20.1864 20.6751 19.7902 21.4186C19.0682 22.7778 18.1868 24.0462 17.1646 25.1968C16.3434 26.0629 15.3579 26.7567 14.2656 27.2377C13.1734 27.7188 11.9962 27.9774 10.8029 27.9984C8.56253 28.0542 6.37832 27.2935 4.65727 25.8582C3.80417 25.0846 3.1312 24.1332 2.68585 23.0711C2.24049 22.0091 2.0336 20.8623 2.07976 19.7116V19.2523C2.07976 18.9571 2.07375 18.5349 2.07075 18.0236L2.04374 14.2043C2.02372 11.3627 2.00471 8.35791 2.00471 7.68251C1.98752 7.26556 2.1321 6.85809 2.40824 6.54522C2.68438 6.23235 3.07073 6.03827 3.48658 6.00352C3.69099 5.99604 3.89483 6.02955 4.0861 6.10207C4.27736 6.17458 4.45217 6.28465 4.60024 6.42577C4.75541 6.59334 4.87525 6.79045 4.95261 7.00533C5.02996 7.22022 5.06326 7.44848 5.0505 7.6765V8.76114C4.67406 9.35494 4.47353 10.0432 4.47216 10.7463V13.2678C4.47389 13.8165 4.59697 14.3581 4.83258 14.8537C5.06818 15.3493 5.41049 15.7867 5.83496 16.1345C5.829 16.1649 5.82499 16.1956 5.82295 16.2265C5.84192 16.4911 5.96513 16.7372 6.1655 16.911C6.36588 17.0847 6.62703 17.1718 6.89158 17.1531C8.52782 17.0238 10.1699 16.9847 11.8105 17.036C12.4558 17.063 13.0792 17.114 13.6666 17.1881C13.6015 17.2171 13.5415 17.2411 13.4754 17.2721C11.122 18.3172 9.07676 19.9497 7.53596 22.0129C7.45929 22.1197 7.4044 22.2405 7.37442 22.3685C7.34444 22.4964 7.33996 22.6291 7.36124 22.7588C7.40421 23.0207 7.54948 23.2549 7.76509 23.4097C7.98071 23.5646 8.249 23.6274 8.51096 23.5845C8.77291 23.5415 9.00707 23.3962 9.16191 23.1806C10.5 21.3985 12.2728 19.9895 14.3109 19.0882C14.9935 18.7718 15.6977 18.5044 16.4182 18.2877C16.6823 18.2087 16.8925 18.1547 17.0335 18.1206L17.1896 18.0846L17.2256 18.0766H17.2317C17.4335 18.0374 17.6184 17.9369 17.7612 17.7889C17.9039 17.6408 17.9976 17.4524 18.0294 17.2492C18.0612 17.046 18.0297 16.838 17.939 16.6534C17.8484 16.4688 17.703 16.3166 17.5228 16.2175C16.8947 15.8885 16.2258 15.644 15.5337 15.4901C16.0288 14.6485 16.2742 13.6833 16.2411 12.7075V9.67668C16.2784 8.75604 16.0735 7.84173 15.6467 7.02512V3.84626C15.6367 3.37947 15.8075 2.92689 16.1234 2.58306C16.4393 2.23923 16.8758 2.03075 17.3417 2.00117C17.5767 2.00213 17.8089 2.05174 18.0237 2.14688C18.2385 2.24203 18.4313 2.38064 18.5898 2.55399C18.7484 2.72733 18.8694 2.93165 18.9451 3.15406C19.0208 3.37647 19.0496 3.61216 19.0297 3.84626V13.3518C19.0117 13.7351 19.1358 14.1103 19.3779 14.4075C19.5276 14.5737 19.7213 14.6942 19.9366 14.7551C20.1519 14.816 20.38 14.8148 20.5946 14.7517C20.7877 14.6946 20.9678 14.6036 21.1279 14.4825C21.182 14.4435 21.228 14.4065 21.258 14.3824L21.298 14.3454L21.309 14.3364C22.0075 13.7539 22.7722 13.2559 23.5874 12.8525C23.9661 12.668 24.3993 12.6285 24.8051 12.7415C25.1543 12.8165 25.4695 13.0006 25.7056 13.2678C25.9838 13.656 26.1019 14.1363 26.0368 14.6096C26.022 14.8079 25.9679 15.0013 25.8777 15.1786C25.7876 15.3558 25.6631 15.5134 25.5115 15.6422L25.0993 15.9323Z"/>
</mask>
<path d="M27.3006 12.0631C26.7911 11.4285 26.0837 10.9829 25.2914 10.7973C24.4108 10.5642 23.4754 10.6617 22.6618 11.0715C22.0998 11.3629 21.5543 11.6853 21.0279 12.0371V3.84626C21.0475 3.34937 20.9668 2.85362 20.7905 2.38863C20.6143 1.92364 20.3461 1.49895 20.002 1.13993C19.6579 0.780906 19.245 0.494924 18.7879 0.299067C18.3309 0.103209 17.839 0.0014948 17.3417 0C16.3452 0.0293122 15.4 0.44885 14.7098 1.16825C14.0196 1.88766 13.6396 2.84937 13.6515 3.84626V5.49623C13.3419 5.42092 13.0247 5.38131 12.706 5.37816C12.4639 5.37816 12.2227 5.39817 11.9846 5.43919L11.9055 5.4512C11.6934 5.49122 11.4853 5.55126 11.2852 5.6283C11.2461 5.64331 11.2101 5.66132 11.1721 5.67833C11.0016 5.75058 10.8384 5.83904 10.6848 5.94249C10.6448 5.9685 10.6078 5.99952 10.5697 6.02754C10.4227 6.1356 10.2866 6.25767 10.1635 6.39275C10.1505 6.40676 10.1345 6.41577 10.1215 6.43077C10.0905 6.46579 10.0714 6.50682 10.0424 6.54284C9.86275 6.77073 9.7128 7.02054 9.59617 7.28628C8.89735 6.99129 8.12253 6.92748 7.38487 7.10417C7.30082 7.12318 7.22278 7.1552 7.14173 7.18021L7.01065 7.22024C6.94309 6.39368 6.5917 5.61594 6.01607 5.01895C5.68265 4.69059 5.2874 4.43167 4.8532 4.25717C4.419 4.08266 3.95449 3.99605 3.48658 4.00235C2.53995 4.03578 1.64428 4.4395 0.992318 5.12665C0.340354 5.81379 -0.0157871 6.72943 0.000537416 7.6765C0.000537416 8.36091 0.0195485 11.3787 0.0395602 14.2123L0.0665763 18.0326C0.0665763 18.5429 0.0725796 18.9661 0.0755814 19.2603V19.7216C0.0314138 21.1547 0.299985 22.5802 0.862613 23.899C1.42524 25.2178 2.26842 26.3982 3.33349 27.3581C5.41979 29.1157 8.07447 30.0539 10.8019 29.9976C12.2646 29.9766 13.7084 29.6637 15.0486 29.0773C16.3888 28.4909 17.5984 27.6427 18.6065 26.5826C19.7402 25.3172 20.7181 23.9204 21.5192 22.4222C21.8534 21.7918 22.2386 21.1884 22.6708 20.6211C23.7451 19.4639 24.9498 18.4351 26.2609 17.5553C26.407 17.4552 26.5481 17.3492 26.6792 17.2551C27.0529 16.9662 27.364 16.6044 27.5936 16.1915C27.8232 15.7787 27.9666 15.3236 28.015 14.8537C28.145 13.8662 27.8891 12.8666 27.3006 12.0631ZM11.1631 9.67668C11.1621 9.44654 11.1731 9.21741 11.1971 8.98928C11.1971 8.93825 11.2121 8.89722 11.2181 8.84919C11.2351 8.72712 11.2551 8.61205 11.2792 8.50899C11.3123 8.36894 11.3575 8.23201 11.4142 8.09975C11.4302 8.06373 11.4463 8.02371 11.4633 7.99169C11.5103 7.89964 11.5693 7.81459 11.6384 7.73754L11.6544 7.72253C11.706 7.67009 11.7638 7.62407 11.8265 7.58545C11.8875 7.54506 11.953 7.51182 12.0216 7.48639C12.1056 7.45437 12.1927 7.43036 12.2817 7.41435H12.3038C12.4361 7.39309 12.57 7.38271 12.704 7.38333C12.9003 7.36828 13.0975 7.39833 13.2805 7.47116C13.4634 7.544 13.6273 7.6577 13.7596 7.80358C14.1388 8.3519 14.3099 9.01729 14.2439 9.68068V12.7075C14.2439 15.0088 13.0852 15.0088 12.704 15.0088C11.8585 15.0088 11.4783 14.8547 11.3032 14.3274C11.2912 14.2914 11.2782 14.2564 11.2692 14.2173C11.2446 14.1185 11.2262 14.0183 11.2141 13.9172C11.2141 13.8892 11.2061 13.8631 11.2031 13.8331C11.1872 13.6801 11.1769 13.5266 11.1721 13.3728V13.3388C11.1661 13.1487 11.1641 12.9386 11.1641 12.7075L11.1631 9.67668ZM9.17592 9.31246C9.17592 9.43354 9.16191 9.5486 9.16191 9.67668V13.0557C9.15264 13.5737 9.1986 14.0913 9.29899 14.5996C9.05833 14.8027 8.76599 14.9351 8.45452 14.9819C8.14306 15.0288 7.82472 14.9882 7.53496 14.8647C7.21884 14.7321 6.94911 14.5087 6.75981 14.2229C6.57052 13.9371 6.47013 13.6016 6.47133 13.2588V10.7463C6.47141 10.5014 6.52345 10.2592 6.624 10.0358C6.72456 9.81249 6.87135 9.613 7.05468 9.45055C7.14394 9.36748 7.24347 9.29619 7.35085 9.23842C7.39287 9.21441 7.4339 9.18939 7.47793 9.16838C7.55088 9.13589 7.62613 9.1088 7.70306 9.08733C7.74308 9.07232 7.7831 9.06032 7.82413 9.04931C8.05494 8.99528 8.29457 8.9908 8.52724 9.03616C8.75991 9.08152 8.98031 9.17569 9.17392 9.31246H9.17592ZM25.0993 15.9323V15.9293C23.6619 16.8982 22.3422 18.0312 21.167 19.3053C20.6467 19.9677 20.1864 20.6751 19.7902 21.4186C19.0682 22.7778 18.1868 24.0462 17.1646 25.1968C16.3434 26.0629 15.3579 26.7567 14.2656 27.2377C13.1734 27.7188 11.9962 27.9774 10.8029 27.9984C8.56253 28.0542 6.37832 27.2935 4.65727 25.8582C3.80417 25.0846 3.1312 24.1332 2.68585 23.0711C2.24049 22.0091 2.0336 20.8623 2.07976 19.7116V19.2523C2.07976 18.9571 2.07375 18.5349 2.07075 18.0236L2.04374 14.2043C2.02372 11.3627 2.00471 8.35791 2.00471 7.68251C1.98752 7.26556 2.1321 6.85809 2.40824 6.54522C2.68438 6.23235 3.07073 6.03827 3.48658 6.00352C3.69099 5.99604 3.89483 6.02955 4.0861 6.10207C4.27736 6.17458 4.45217 6.28465 4.60024 6.42577C4.75541 6.59334 4.87525 6.79045 4.95261 7.00533C5.02996 7.22022 5.06326 7.44848 5.0505 7.6765V8.76114C4.67406 9.35494 4.47353 10.0432 4.47216 10.7463V13.2678C4.47389 13.8165 4.59697 14.3581 4.83258 14.8537C5.06818 15.3493 5.41049 15.7867 5.83496 16.1345C5.829 16.1649 5.82499 16.1956 5.82295 16.2265C5.84192 16.4911 5.96513 16.7372 6.1655 16.911C6.36588 17.0847 6.62703 17.1718 6.89158 17.1531C8.52782 17.0238 10.1699 16.9847 11.8105 17.036C12.4558 17.063 13.0792 17.114 13.6666 17.1881C13.6015 17.2171 13.5415 17.2411 13.4754 17.2721C11.122 18.3172 9.07676 19.9497 7.53596 22.0129C7.45929 22.1197 7.4044 22.2405 7.37442 22.3685C7.34444 22.4964 7.33996 22.6291 7.36124 22.7588C7.40421 23.0207 7.54948 23.2549 7.76509 23.4097C7.98071 23.5646 8.249 23.6274 8.51096 23.5845C8.77291 23.5415 9.00707 23.3962 9.16191 23.1806C10.5 21.3985 12.2728 19.9895 14.3109 19.0882C14.9935 18.7718 15.6977 18.5044 16.4182 18.2877C16.6823 18.2087 16.8925 18.1547 17.0335 18.1206L17.1896 18.0846L17.2256 18.0766H17.2317C17.4335 18.0374 17.6184 17.9369 17.7612 17.7889C17.9039 17.6408 17.9976 17.4524 18.0294 17.2492C18.0612 17.046 18.0297 16.838 17.939 16.6534C17.8484 16.4688 17.703 16.3166 17.5228 16.2175C16.8947 15.8885 16.2258 15.644 15.5337 15.4901C16.0288 14.6485 16.2742 13.6833 16.2411 12.7075V9.67668C16.2784 8.75604 16.0735 7.84173 15.6467 7.02512V3.84626C15.6367 3.37947 15.8075 2.92689 16.1234 2.58306C16.4393 2.23923 16.8758 2.03075 17.3417 2.00117C17.5767 2.00213 17.8089 2.05174 18.0237 2.14688C18.2385 2.24203 18.4313 2.38064 18.5898 2.55399C18.7484 2.72733 18.8694 2.93165 18.9451 3.15406C19.0208 3.37647 19.0496 3.61216 19.0297 3.84626V13.3518C19.0117 13.7351 19.1358 14.1103 19.3779 14.4075C19.5276 14.5737 19.7213 14.6942 19.9366 14.7551C20.1519 14.816 20.38 14.8148 20.5946 14.7517C20.7877 14.6946 20.9678 14.6036 21.1279 14.4825C21.182 14.4435 21.228 14.4065 21.258 14.3824L21.298 14.3454L21.309 14.3364C22.0075 13.7539 22.7722 13.2559 23.5874 12.8525C23.9661 12.668 24.3993 12.6285 24.8051 12.7415C25.1543 12.8165 25.4695 13.0006 25.7056 13.2678C25.9838 13.656 26.1019 14.1363 26.0368 14.6096C26.022 14.8079 25.9679 15.0013 25.8777 15.1786C25.7876 15.3558 25.6631 15.5134 25.5115 15.6422L25.0993 15.9323Z" fill="#BBA9EF" stroke="black" stroke-width="2" mask="url(#path-1-inside-1_42_58)"/>
</svg>
