<svg width="24" height="29" viewBox="0 0 24 29" fill="none" xmlns="http://www.w3.org/2000/svg">
<path d="M11.2666 11.7999L8.33329 10.4499L4.66664 14.4999M17.1332 24.6019C16.307 25.6554 15.2204 26.5129 13.9632 27.1037C12.706 27.6945 11.3142 28.0017 9.90262 27.9999C4.98491 27.9999 0.999995 24.3481 0.999995 19.8432C0.999995 18.662 1.24053 17.5388 1.73332 16.5249M12.9533 9.09995L11.8474 11.592C10.7239 14.1287 10.1622 15.3963 10.8017 16.2981C11.4411 17.1999 12.9019 17.1999 15.8235 17.1999C16.8414 17.1999 17.824 16.9569 18.3902 17.8695L22.9999 25.2999M14.9333 6.39997C14.1553 6.39997 13.4092 6.1155 12.8591 5.60916C12.309 5.10281 11.9999 4.41606 11.9999 3.69998C11.9999 2.9839 12.309 2.29715 12.8591 1.7908C13.4092 1.28446 14.1553 0.999995 14.9333 0.999995C15.7112 0.999995 16.4573 1.28446 17.0074 1.7908C17.5575 2.29715 17.8666 2.9839 17.8666 3.69998C17.8666 4.41606 17.5575 5.10281 17.0074 5.60916C16.4573 6.1155 15.7112 6.39997 14.9333 6.39997Z" stroke="#BBA9EF" stroke-width="2" stroke-linecap="round" stroke-linejoin="round"/>
</svg>
