<svg width="28" height="29" viewBox="0 0 28 29" fill="none" xmlns="http://www.w3.org/2000/svg">
<path d="M13.0579 11.8L9.61277 10.45L5.30638 14.5M19.9481 24.602C18.9777 25.6555 17.7015 26.513 16.225 27.1038C14.7484 27.6946 13.1138 28.0018 11.4559 28C5.68018 28 1 24.3482 1 19.8433C1 18.662 1.2825 17.5388 1.86128 16.525M15.0388 9.1L13.74 11.5921C12.4205 14.1287 11.7608 15.3964 12.5118 16.2982C13.2629 17.2 14.9785 17.2 18.4098 17.2C19.6053 17.2 20.7594 16.957 21.4243 17.8696L26.8383 25.3M17.3643 6.4C16.4506 6.4 15.5743 6.11554 14.9282 5.60919C14.2821 5.10284 13.9191 4.41608 13.9191 3.7C13.9191 2.98391 14.2821 2.29716 14.9282 1.79081C15.5743 1.28446 16.4506 1 17.3643 1C18.278 1 19.1542 1.28446 19.8003 1.79081C20.4464 2.29716 20.8094 2.98391 20.8094 3.7C20.8094 4.41608 20.4464 5.10284 19.8003 5.60919C19.1542 6.11554 18.278 6.4 17.3643 6.4Z" stroke="#E0D9F7" stroke-width="2" stroke-linecap="round" stroke-linejoin="round"/>
</svg>
