<svg width="16" height="21" viewBox="0 0 16 21" fill="none" xmlns="http://www.w3.org/2000/svg">
<path d="M7.46939 8.60087L5.62224 7.65131L3.31331 10.5M11.1637 17.6056C10.6434 18.3465 9.95916 18.9497 9.16748 19.3653C8.3758 19.7808 7.49936 19.9969 6.61047 19.9956C3.51373 19.9956 1.00438 17.427 1.00438 14.2584C1.00438 13.4275 1.15585 12.6375 1.46617 11.9243M8.5315 6.70175L7.83512 8.45464C7.12767 10.2389 6.77394 11.1305 7.17662 11.7648C7.57929 12.3991 8.49917 12.3991 10.3389 12.3991C10.9799 12.3991 11.5987 12.2282 11.9552 12.8701L14.858 18.0965M9.77832 4.80263C9.28843 4.80263 8.8186 4.60254 8.47219 4.24639C8.12578 3.89023 7.93117 3.40719 7.93117 2.90351C7.93117 2.39983 8.12578 1.91678 8.47219 1.56062C8.8186 1.20447 9.28843 1.00438 9.77832 1.00438C10.2682 1.00438 10.738 1.20447 11.0844 1.56062C11.4309 1.91678 11.6255 2.39983 11.6255 2.90351C11.6255 3.40719 11.4309 3.89023 11.0844 4.24639C10.738 4.60254 10.2682 4.80263 9.77832 4.80263Z" stroke="black" stroke-width="2" stroke-linecap="round" stroke-linejoin="round"/>
</svg>
