<svg width="26" height="28" viewBox="0 0 26 28" fill="none" xmlns="http://www.w3.org/2000/svg">
<path d="M1.70342 22.7076C1.70342 23.1701 1.74223 23.6117 1.82289 24.0267C1.64461 23.6868 1.47807 23.2743 1.32905 22.7811C1.11395 22.0558 1 21.2158 1 20.2537C1 18.8921 1.4494 17.7701 2.33727 16.8341L3.27739 15.8429L2.52389 15.4771C2.53191 15.2541 2.5544 14.9498 2.59501 14.5554L2.59643 14.5416L2.59747 14.5278C2.64593 13.8821 2.76751 13.2442 2.95965 12.6253C3.95487 12.892 5.20282 13.498 6.72593 14.5175L7.09352 14.7635L7.52284 14.6571C8.07959 14.519 8.89902 14.4319 10.0286 14.4319C11.2209 14.4319 12.0307 14.5209 12.5132 14.6526L12.948 14.7713L13.325 14.524C14.1897 13.9566 15.0016 13.5042 15.7644 13.1651C16.3998 12.8895 16.8348 12.7297 17.1098 12.6527C17.2883 13.2366 17.406 13.8639 17.4617 14.5368L17.4625 14.5462L17.4634 14.5556C17.5036 14.9498 17.5258 15.254 17.5336 15.477L16.7805 15.8425L17.7194 16.8336C18.608 17.7715 19.0571 18.8925 19.0571 20.2537C19.0571 21.2159 18.9432 22.056 18.728 22.7813C18.5976 23.2129 18.4531 23.5833 18.2991 23.8976C18.3647 23.5209 18.3967 23.123 18.3967 22.7076C18.3967 21.4011 17.879 20.2819 16.8847 19.4183C16.3481 18.9278 15.6748 18.6093 14.9544 18.5003C14.2966 18.397 13.3789 18.4057 12.2614 18.4916L12.26 18.4917C11.1601 18.5778 10.4361 18.6139 10.0716 18.6139C9.55152 18.6139 8.98327 18.5903 8.25836 18.5347L8.25637 18.5346C7.50453 18.4784 6.90888 18.4429 6.4725 18.4242L6.45959 18.4236L6.44668 18.4234C5.90534 18.4143 5.36491 18.4728 4.83861 18.5976C4.23183 18.7261 3.66521 19.0009 3.19143 19.3995L3.18421 19.4056L3.1771 19.4118C2.20764 20.2592 1.70342 21.3821 1.70342 22.7076ZM2.89308 26.2215C3.22535 26.5719 3.63191 26.8642 4.11856 27.0879L1.97306 24.6208C2.16627 25.2315 2.46699 25.77 2.88705 26.2151C2.88906 26.2172 2.89107 26.2193 2.89308 26.2215ZM13.7017 23.755L13.6999 23.7574C13.6247 23.8577 13.5748 23.8907 13.5592 23.8994C13.5515 23.9038 13.5473 23.9051 13.5447 23.9057C13.5419 23.9064 13.5338 23.9083 13.5171 23.9083C13.476 23.9083 13.4515 23.9003 13.43 23.8888C13.4057 23.8758 13.3566 23.8425 13.2927 23.7574L13.2909 23.755C13.1625 23.5848 13.0715 23.3496 13.0715 23.0039C13.0715 22.6584 13.161 22.4245 13.2937 22.2464C13.4043 22.0989 13.4716 22.0967 13.5171 22.0967C13.5325 22.0967 13.5397 22.0985 13.542 22.099C13.5441 22.0996 13.5484 22.1009 13.5568 22.1056C13.574 22.1153 13.6247 22.1495 13.7009 22.249C13.8325 22.4268 13.9211 22.6601 13.9211 23.0039C13.9211 23.3496 13.8301 23.5848 13.7017 23.755ZM6.76766 23.755L6.76764 23.755L6.76438 23.7594C6.69073 23.8581 6.64137 23.8907 6.62585 23.8994C6.61812 23.9038 6.61382 23.9051 6.61121 23.9058C6.60844 23.9065 6.60051 23.9083 6.58447 23.9083C6.53884 23.9083 6.47175 23.9074 6.35717 23.7554L6.35688 23.755C6.22845 23.5848 6.13749 23.3496 6.13749 23.0039C6.13749 22.659 6.22661 22.4254 6.35888 22.2474C6.47167 22.0982 6.53847 22.0967 6.58447 22.0967C6.59922 22.0967 6.60623 22.0984 6.60848 22.099C6.61063 22.0995 6.61509 22.1008 6.62349 22.1056C6.64067 22.1153 6.69112 22.1493 6.76618 22.2481C6.89817 22.426 6.98704 22.6595 6.98704 23.0039C6.98704 23.3496 6.89609 23.5848 6.76766 23.755Z" fill="#BBA9EF" stroke="#BBA9EF" stroke-width="2"/>
<g clip-path="url(#clip0_42_83)">
<path d="M23.6422 5.03389C23.5952 5.01947 23.5443 5.02365 23.5005 5.04553C23.4568 5.06741 23.4238 5.10519 23.4089 5.15056C23.394 5.19592 23.3983 5.24516 23.4209 5.28744C23.4436 5.32971 23.4827 5.36157 23.5296 5.37599C24.9812 5.82291 25.6286 6.48953 25.6286 7.53845C25.6286 8.47143 24.7479 9.19548 24.2234 9.5444C24.1986 9.56088 24.1783 9.58296 24.1642 9.60873C24.1502 9.6345 24.1429 9.66318 24.1428 9.6923V11.0647C23.6969 10.9012 23.2985 10.6357 22.9818 10.2911C22.9603 10.268 22.933 10.2506 22.9026 10.2406C22.8721 10.2306 22.8395 10.2283 22.8079 10.234C22.7021 10.2537 22.594 10.2817 22.4844 10.3101C22.295 10.3593 22.0996 10.4102 21.9143 10.4102C20.9604 10.4102 20.2926 10.2121 19.6099 9.72712C19.5702 9.69889 19.5206 9.68706 19.4718 9.69423C19.4231 9.7014 19.3793 9.72698 19.3501 9.76535C19.3209 9.80372 19.3087 9.85173 19.3161 9.89882C19.3235 9.94591 19.35 9.98822 19.3897 10.0165C20.1426 10.5513 20.8739 10.7692 21.9143 10.7692C22.1486 10.7692 22.3685 10.7121 22.581 10.6569C22.6471 10.6393 22.7128 10.622 22.7778 10.6073C23.472 11.3159 24.2572 11.4771 24.2914 11.4836C24.3184 11.489 24.3463 11.4885 24.373 11.4821C24.3998 11.4757 24.4247 11.4636 24.4459 11.4466C24.4673 11.4298 24.4845 11.4086 24.4964 11.3846C24.5082 11.3606 24.5143 11.3343 24.5143 11.3077V9.78599C25.4733 9.12512 26 8.32963 26 7.53845C26 6.32476 25.2508 5.52891 23.6422 5.03389Z" fill="#BBA9EF"/>
<path d="M22.6571 4.84615C22.6571 2.08349 20.0505 0 16.5943 0C13.1207 0 10.4 2.12908 10.4 4.84687C10.4 6.47626 11.5927 7.64364 12.6286 8.3501V10.7323C12.6288 10.7622 12.6366 10.7915 12.6515 10.8178C12.6664 10.844 12.6878 10.8662 12.7138 10.8824C12.7397 10.8987 12.7695 10.9084 12.8003 10.9108C12.8312 10.9131 12.8621 10.908 12.8904 10.8959C12.9447 10.8726 14.2123 10.3158 15.2969 9.16964C15.7668 9.254 16.2983 9.33513 16.7804 9.33513C20.2952 9.33513 22.6571 7.53092 22.6571 4.84615ZM16.78 8.97615C16.2935 8.97615 15.7404 8.88605 15.2635 8.7981C15.2319 8.79249 15.1993 8.79479 15.1689 8.80478C15.1385 8.81477 15.1112 8.83212 15.0897 8.85518C14.3282 9.68513 13.4335 10.2125 13 10.4397V8.25641C13 8.22729 12.9926 8.19861 12.9786 8.17284C12.9646 8.14707 12.9442 8.125 12.9194 8.10851C11.9396 7.45697 10.7714 6.36282 10.7714 4.84687C10.7714 2.3301 13.3291 0.358974 16.5943 0.358974C19.8391 0.358974 22.2857 2.2881 22.2857 4.84615C22.2857 7.31662 20.0731 8.97615 16.78 8.97615Z" fill="#BBA9EF"/>
<path d="M16.5286 4.12823C16.1189 4.12823 15.7857 4.45023 15.7857 4.84618C15.7857 5.24213 16.1189 5.56413 16.5286 5.56413C16.9382 5.56413 17.2714 5.24213 17.2714 4.84618C17.2714 4.45023 16.9382 4.12823 16.5286 4.12823ZM16.5286 5.20516C16.4329 5.20102 16.3426 5.1614 16.2765 5.09453C16.2103 5.02766 16.1734 4.9387 16.1734 4.84618C16.1734 4.75366 16.2103 4.66471 16.2765 4.59784C16.3426 4.53097 16.4329 4.49134 16.5286 4.48721C16.6242 4.49134 16.7145 4.53097 16.7807 4.59784C16.8468 4.66471 16.8837 4.75366 16.8837 4.84618C16.8837 4.9387 16.8468 5.02766 16.7807 5.09453C16.7145 5.1614 16.6242 5.20102 16.5286 5.20516ZM19.1286 4.12823C18.7189 4.12823 18.3857 4.45023 18.3857 4.84618C18.3857 5.24213 18.7189 5.56413 19.1286 5.56413C19.5382 5.56413 19.8714 5.24213 19.8714 4.84618C19.8714 4.45023 19.5382 4.12823 19.1286 4.12823ZM19.1286 5.20516C19.0329 5.20102 18.9426 5.1614 18.8765 5.09453C18.8103 5.02766 18.7734 4.9387 18.7734 4.84618C18.7734 4.75366 18.8103 4.66471 18.8765 4.59784C18.9426 4.53097 19.0329 4.49134 19.1286 4.48721C19.2242 4.49134 19.3145 4.53097 19.3807 4.59784C19.4468 4.66471 19.4837 4.75366 19.4837 4.84618C19.4837 4.9387 19.4468 5.02766 19.3807 5.09453C19.3145 5.1614 19.2242 5.20102 19.1286 5.20516ZM13.9286 4.16234C13.5189 4.16234 13.1857 4.48434 13.1857 4.88029C13.1857 5.27624 13.5189 5.59824 13.9286 5.59824C14.3382 5.59824 14.6714 5.27624 14.6714 4.88029C14.6714 4.48434 14.3382 4.16234 13.9286 4.16234ZM13.9286 5.23926C13.8329 5.23513 13.7426 5.1955 13.6765 5.12863C13.6103 5.06176 13.5734 4.97281 13.5734 4.88029C13.5734 4.78777 13.6103 4.69881 13.6765 4.63194C13.7426 4.56507 13.8329 4.52545 13.9286 4.52131C14.0242 4.52545 14.1145 4.56507 14.1807 4.63194C14.2468 4.69881 14.2837 4.78777 14.2837 4.88029C14.2837 4.97281 14.2468 5.06176 14.1807 5.12863C14.1145 5.1955 14.0242 5.23513 13.9286 5.23926Z" fill="#BBA9EF"/>
</g>
<defs>
<clipPath id="clip0_42_83">
<rect width="15.6" height="11.4872" fill="white" transform="translate(10.4)"/>
</clipPath>
</defs>
</svg>
