<svg width="20" height="22" viewBox="0 0 20 22" fill="none" xmlns="http://www.w3.org/2000/svg">
<mask id="path-1-inside-1_42_67" fill="white">
<path d="M19.467 8.84626C19.1037 8.3809 18.5993 8.05411 18.0343 7.91805C17.4064 7.74705 16.7394 7.81857 16.1593 8.1191C15.7585 8.33283 15.3695 8.56922 14.9942 8.82718V2.82059C15.0082 2.4562 14.9506 2.09265 14.8249 1.75166C14.6992 1.41067 14.508 1.09923 14.2627 0.835946C14.0173 0.572664 13.7229 0.362944 13.397 0.219316C13.071 0.0756868 12.7203 0.00109619 12.3657 0C11.6551 0.0214956 10.9812 0.329156 10.489 0.856719C9.99684 1.38428 9.72585 2.08954 9.73439 2.82059V4.03057C9.51359 3.97534 9.28737 3.94629 9.06015 3.94398C8.88749 3.94398 8.71554 3.95866 8.54573 3.98874L8.48937 3.99755C8.33811 4.0269 8.1897 4.07092 8.04701 4.12742C8.01918 4.13843 7.9935 4.15164 7.96639 4.16411C7.8448 4.21709 7.72844 4.28196 7.61892 4.35782C7.59038 4.3769 7.56398 4.39965 7.53687 4.42019C7.43199 4.49944 7.33496 4.58896 7.2472 4.68802C7.23792 4.69829 7.22651 4.70489 7.21723 4.7159C7.19511 4.74158 7.18156 4.77167 7.16087 4.79808C7.03275 4.9652 6.92582 5.1484 6.84265 5.34327C6.34436 5.12695 5.79186 5.08015 5.26586 5.20972C5.20593 5.22367 5.15028 5.24715 5.09249 5.26549L4.99902 5.29484C4.95085 4.6887 4.70028 4.11836 4.28982 3.68056C4.05208 3.43977 3.77024 3.24989 3.46063 3.12192C3.15102 2.99395 2.8198 2.93044 2.48615 2.93506C1.81114 2.95957 1.17247 3.25563 0.707583 3.75954C0.242693 4.26345 -0.0112572 4.93491 0.000383211 5.62944C0.000383211 6.13133 0.0139393 8.34436 0.0282089 10.4224L0.047473 13.2239C0.047473 13.5981 0.0517537 13.9085 0.0538941 14.1242V14.4625C0.0223999 15.5134 0.213907 16.5588 0.615095 17.5259C1.01628 18.493 1.61752 19.3587 2.37698 20.0626C3.86464 21.3515 5.75759 22.0395 7.7024 21.9982C8.74541 21.9828 9.77494 21.7534 10.7306 21.3233C11.6862 20.8933 12.5487 20.2713 13.2675 19.4939C14.076 18.566 14.7733 17.5417 15.3445 16.4429C15.5828 15.9806 15.8575 15.5382 16.1657 15.1221C16.9317 14.2735 17.7907 13.5191 18.7257 12.8739C18.8298 12.8005 18.9304 12.7227 19.0239 12.6538C19.2904 12.4419 19.5122 12.1765 19.6759 11.8738C19.8397 11.5711 19.9419 11.2373 19.9764 10.8927C20.0691 10.1686 19.8866 9.43552 19.467 8.84626ZM7.95996 7.09623C7.95925 6.92746 7.9671 6.75943 7.98422 6.59214C7.98422 6.55471 7.99492 6.52463 7.99921 6.48941C8.01133 6.39989 8.0256 6.31551 8.04273 6.23993C8.06635 6.13722 8.09858 6.03681 8.13905 5.93982C8.15046 5.9134 8.16188 5.88405 8.17401 5.86057C8.20754 5.79307 8.24964 5.7307 8.29887 5.6742L8.31028 5.66319C8.34712 5.62474 8.38832 5.59098 8.433 5.56266C8.47652 5.53305 8.5232 5.50867 8.57213 5.49002C8.63206 5.46654 8.69413 5.44893 8.75763 5.43719H8.77333C8.8677 5.4216 8.96315 5.41399 9.05872 5.41444C9.19873 5.40341 9.33934 5.42544 9.4698 5.47885C9.60026 5.53227 9.71712 5.61565 9.81144 5.72262C10.0819 6.12473 10.2039 6.61268 10.1568 7.09917V9.3188C10.1568 11.0065 9.33056 11.0065 9.05872 11.0065C8.45583 11.0065 8.18471 10.8935 8.05985 10.5068C8.05129 10.4804 8.04201 10.4547 8.03559 10.4261C8.01811 10.3536 8.005 10.2801 7.99635 10.2059C7.99635 10.1854 7.99064 10.1663 7.9885 10.1443C7.97716 10.0321 7.96978 9.9195 7.96639 9.80676V9.78181C7.9621 9.64239 7.96068 9.4883 7.96068 9.3188L7.95996 7.09623ZM6.54299 6.82914C6.54299 6.91793 6.533 7.00231 6.533 7.09623V9.57415C6.52639 9.95405 6.55916 10.3336 6.63075 10.7063C6.45915 10.8553 6.25068 10.9524 6.02859 10.9868C5.8065 11.0211 5.5795 10.9913 5.37289 10.9008C5.14748 10.8035 4.95514 10.6397 4.82016 10.4301C4.68518 10.2205 4.6136 9.97451 4.61446 9.72311V7.88062C4.61451 7.70099 4.65162 7.52342 4.72332 7.35962C4.79502 7.19582 4.89969 7.04953 5.03042 6.9304C5.09407 6.86949 5.16504 6.81721 5.24161 6.77484C5.27157 6.75723 5.30083 6.73889 5.33222 6.72348C5.38424 6.69965 5.4379 6.67979 5.49275 6.66404C5.52129 6.65304 5.54983 6.64423 5.57908 6.63616C5.74366 6.59654 5.91454 6.59326 6.08044 6.62652C6.24635 6.65978 6.40351 6.72884 6.54157 6.82914H6.54299ZM17.8973 11.6837V11.6815C16.8724 12.392 15.9314 13.2229 15.0933 14.1572C14.7223 14.643 14.3941 15.1618 14.1116 15.707C13.5968 16.7037 12.9683 17.6339 12.2394 18.4776C11.6539 19.1128 10.9511 19.6216 10.1723 19.9743C9.39342 20.3271 8.55402 20.5167 7.70311 20.5322C6.10561 20.5731 4.54813 20.0153 3.32092 18.9627C2.7126 18.3953 2.23274 17.6977 1.91517 16.9188C1.59761 16.14 1.45008 15.299 1.48299 14.4551V14.1184C1.48299 13.9019 1.47871 13.5922 1.47657 13.2173L1.45731 10.4165C1.44304 8.33262 1.42948 6.12913 1.42948 5.63384C1.41722 5.32808 1.52032 5.02927 1.71722 4.79983C1.91413 4.57039 2.18962 4.42806 2.48615 4.40258C2.6319 4.3971 2.77725 4.42167 2.91364 4.47485C3.05002 4.52803 3.17467 4.60874 3.28025 4.71223C3.3909 4.83512 3.47635 4.97966 3.53151 5.13724C3.58667 5.29483 3.61041 5.46222 3.60132 5.62944V6.42484C3.33289 6.86029 3.1899 7.36504 3.18892 7.88062V9.72971C3.19016 10.1321 3.27792 10.5293 3.44592 10.8927C3.61392 11.2562 3.85801 11.5769 4.16068 11.8319C4.15643 11.8542 4.15357 11.8768 4.15212 11.8994C4.16565 12.0934 4.2535 12.274 4.39638 12.4014C4.53926 12.5288 4.72548 12.5926 4.91412 12.5789C6.08086 12.4841 7.25178 12.4555 8.42159 12.4931C8.88178 12.5129 9.32628 12.5503 9.74509 12.6046C9.69871 12.6259 9.65591 12.6435 9.60882 12.6662C7.93069 13.4326 6.47229 14.6298 5.3736 16.1428C5.31893 16.2211 5.27979 16.3097 5.25841 16.4035C5.23703 16.4974 5.23384 16.5947 5.24901 16.6898C5.27965 16.8819 5.38324 17.0536 5.53699 17.1671C5.69073 17.2807 5.88204 17.3268 6.06883 17.2953C6.25562 17.2638 6.42259 17.1572 6.533 16.9991C7.48713 15.6923 8.75127 14.659 10.2046 13.998C10.6913 13.766 11.1934 13.5699 11.7072 13.411C11.8955 13.353 12.0454 13.3134 12.146 13.2885L12.2573 13.262L12.2829 13.2562H12.2872C12.4312 13.2274 12.563 13.1537 12.6648 13.0452C12.7666 12.9366 12.8334 12.7984 12.8561 12.6494C12.8788 12.5004 12.8562 12.3478 12.7916 12.2125C12.727 12.0771 12.6234 11.9655 12.4948 11.8928C12.0469 11.6516 11.57 11.4722 11.0764 11.3594C11.4295 10.7422 11.6045 10.0345 11.5809 9.3188V7.09623C11.6075 6.4211 11.4614 5.7506 11.1571 5.15176V2.82059C11.15 2.47828 11.2717 2.14639 11.497 1.89424C11.7222 1.6421 12.0334 1.48922 12.3657 1.46753C12.5332 1.46823 12.6988 1.50461 12.852 1.57438C13.0052 1.64415 13.1426 1.7458 13.2557 1.87292C13.3688 2.00004 13.455 2.14988 13.509 2.31298C13.563 2.47608 13.5835 2.64892 13.5693 2.82059V9.79135C13.5565 10.0724 13.645 10.3475 13.8176 10.5655C13.9244 10.6874 14.0625 10.7758 14.216 10.8204C14.3695 10.8651 14.5322 10.8642 14.6852 10.8179C14.8229 10.7761 14.9514 10.7093 15.0655 10.6205C15.104 10.5919 15.1369 10.5647 15.1583 10.5471L15.1868 10.52L15.1946 10.5134C15.6927 10.0862 16.238 9.72096 16.8192 9.4252C17.0893 9.28986 17.3982 9.26088 17.6875 9.34375C17.9366 9.39878 18.1613 9.5338 18.3297 9.72971C18.528 10.0144 18.6122 10.3666 18.5658 10.7137C18.5553 10.8591 18.5167 11.001 18.4524 11.1309C18.3881 11.2609 18.2993 11.3765 18.1913 11.4709L17.8973 11.6837Z"/>
</mask>
<path d="M19.467 8.84626C19.1037 8.3809 18.5993 8.05411 18.0343 7.91805C17.4064 7.74705 16.7394 7.81857 16.1593 8.1191C15.7585 8.33283 15.3695 8.56922 14.9942 8.82718V2.82059C15.0082 2.4562 14.9506 2.09265 14.8249 1.75166C14.6992 1.41067 14.508 1.09923 14.2627 0.835946C14.0173 0.572664 13.7229 0.362944 13.397 0.219316C13.071 0.0756868 12.7203 0.00109619 12.3657 0C11.6551 0.0214956 10.9812 0.329156 10.489 0.856719C9.99684 1.38428 9.72585 2.08954 9.73439 2.82059V4.03057C9.51359 3.97534 9.28737 3.94629 9.06015 3.94398C8.88749 3.94398 8.71554 3.95866 8.54573 3.98874L8.48937 3.99755C8.33811 4.0269 8.1897 4.07092 8.04701 4.12742C8.01918 4.13843 7.9935 4.15164 7.96639 4.16411C7.8448 4.21709 7.72844 4.28196 7.61892 4.35782C7.59038 4.3769 7.56398 4.39965 7.53687 4.42019C7.43199 4.49944 7.33496 4.58896 7.2472 4.68802C7.23792 4.69829 7.22651 4.70489 7.21723 4.7159C7.19511 4.74158 7.18156 4.77167 7.16087 4.79808C7.03275 4.9652 6.92582 5.1484 6.84265 5.34327C6.34436 5.12695 5.79186 5.08015 5.26586 5.20972C5.20593 5.22367 5.15028 5.24715 5.09249 5.26549L4.99902 5.29484C4.95085 4.6887 4.70028 4.11836 4.28982 3.68056C4.05208 3.43977 3.77024 3.24989 3.46063 3.12192C3.15102 2.99395 2.8198 2.93044 2.48615 2.93506C1.81114 2.95957 1.17247 3.25563 0.707583 3.75954C0.242693 4.26345 -0.0112572 4.93491 0.000383211 5.62944C0.000383211 6.13133 0.0139393 8.34436 0.0282089 10.4224L0.047473 13.2239C0.047473 13.5981 0.0517537 13.9085 0.0538941 14.1242V14.4625C0.0223999 15.5134 0.213907 16.5588 0.615095 17.5259C1.01628 18.493 1.61752 19.3587 2.37698 20.0626C3.86464 21.3515 5.75759 22.0395 7.7024 21.9982C8.74541 21.9828 9.77494 21.7534 10.7306 21.3233C11.6862 20.8933 12.5487 20.2713 13.2675 19.4939C14.076 18.566 14.7733 17.5417 15.3445 16.4429C15.5828 15.9806 15.8575 15.5382 16.1657 15.1221C16.9317 14.2735 17.7907 13.5191 18.7257 12.8739C18.8298 12.8005 18.9304 12.7227 19.0239 12.6538C19.2904 12.4419 19.5122 12.1765 19.6759 11.8738C19.8397 11.5711 19.9419 11.2373 19.9764 10.8927C20.0691 10.1686 19.8866 9.43552 19.467 8.84626ZM7.95996 7.09623C7.95925 6.92746 7.9671 6.75943 7.98422 6.59214C7.98422 6.55471 7.99492 6.52463 7.99921 6.48941C8.01133 6.39989 8.0256 6.31551 8.04273 6.23993C8.06635 6.13722 8.09858 6.03681 8.13905 5.93982C8.15046 5.9134 8.16188 5.88405 8.17401 5.86057C8.20754 5.79307 8.24964 5.7307 8.29887 5.6742L8.31028 5.66319C8.34712 5.62474 8.38832 5.59098 8.433 5.56266C8.47652 5.53305 8.5232 5.50867 8.57213 5.49002C8.63206 5.46654 8.69413 5.44893 8.75763 5.43719H8.77333C8.8677 5.4216 8.96315 5.41399 9.05872 5.41444C9.19873 5.40341 9.33934 5.42544 9.4698 5.47885C9.60026 5.53227 9.71712 5.61565 9.81144 5.72262C10.0819 6.12473 10.2039 6.61268 10.1568 7.09917V9.3188C10.1568 11.0065 9.33056 11.0065 9.05872 11.0065C8.45583 11.0065 8.18471 10.8935 8.05985 10.5068C8.05129 10.4804 8.04201 10.4547 8.03559 10.4261C8.01811 10.3536 8.005 10.2801 7.99635 10.2059C7.99635 10.1854 7.99064 10.1663 7.9885 10.1443C7.97716 10.0321 7.96978 9.9195 7.96639 9.80676V9.78181C7.9621 9.64239 7.96068 9.4883 7.96068 9.3188L7.95996 7.09623ZM6.54299 6.82914C6.54299 6.91793 6.533 7.00231 6.533 7.09623V9.57415C6.52639 9.95405 6.55916 10.3336 6.63075 10.7063C6.45915 10.8553 6.25068 10.9524 6.02859 10.9868C5.8065 11.0211 5.5795 10.9913 5.37289 10.9008C5.14748 10.8035 4.95514 10.6397 4.82016 10.4301C4.68518 10.2205 4.6136 9.97451 4.61446 9.72311V7.88062C4.61451 7.70099 4.65162 7.52342 4.72332 7.35962C4.79502 7.19582 4.89969 7.04953 5.03042 6.9304C5.09407 6.86949 5.16504 6.81721 5.24161 6.77484C5.27157 6.75723 5.30083 6.73889 5.33222 6.72348C5.38424 6.69965 5.4379 6.67979 5.49275 6.66404C5.52129 6.65304 5.54983 6.64423 5.57908 6.63616C5.74366 6.59654 5.91454 6.59326 6.08044 6.62652C6.24635 6.65978 6.40351 6.72884 6.54157 6.82914H6.54299ZM17.8973 11.6837V11.6815C16.8724 12.392 15.9314 13.2229 15.0933 14.1572C14.7223 14.643 14.3941 15.1618 14.1116 15.707C13.5968 16.7037 12.9683 17.6339 12.2394 18.4776C11.6539 19.1128 10.9511 19.6216 10.1723 19.9743C9.39342 20.3271 8.55402 20.5167 7.70311 20.5322C6.10561 20.5731 4.54813 20.0153 3.32092 18.9627C2.7126 18.3953 2.23274 17.6977 1.91517 16.9188C1.59761 16.14 1.45008 15.299 1.48299 14.4551V14.1184C1.48299 13.9019 1.47871 13.5922 1.47657 13.2173L1.45731 10.4165C1.44304 8.33262 1.42948 6.12913 1.42948 5.63384C1.41722 5.32808 1.52032 5.02927 1.71722 4.79983C1.91413 4.57039 2.18962 4.42806 2.48615 4.40258C2.6319 4.3971 2.77725 4.42167 2.91364 4.47485C3.05002 4.52803 3.17467 4.60874 3.28025 4.71223C3.3909 4.83512 3.47635 4.97966 3.53151 5.13724C3.58667 5.29483 3.61041 5.46222 3.60132 5.62944V6.42484C3.33289 6.86029 3.1899 7.36504 3.18892 7.88062V9.72971C3.19016 10.1321 3.27792 10.5293 3.44592 10.8927C3.61392 11.2562 3.85801 11.5769 4.16068 11.8319C4.15643 11.8542 4.15357 11.8768 4.15212 11.8994C4.16565 12.0934 4.2535 12.274 4.39638 12.4014C4.53926 12.5288 4.72548 12.5926 4.91412 12.5789C6.08086 12.4841 7.25178 12.4555 8.42159 12.4931C8.88178 12.5129 9.32628 12.5503 9.74509 12.6046C9.69871 12.6259 9.65591 12.6435 9.60882 12.6662C7.93069 13.4326 6.47229 14.6298 5.3736 16.1428C5.31893 16.2211 5.27979 16.3097 5.25841 16.4035C5.23703 16.4974 5.23384 16.5947 5.24901 16.6898C5.27965 16.8819 5.38324 17.0536 5.53699 17.1671C5.69073 17.2807 5.88204 17.3268 6.06883 17.2953C6.25562 17.2638 6.42259 17.1572 6.533 16.9991C7.48713 15.6923 8.75127 14.659 10.2046 13.998C10.6913 13.766 11.1934 13.5699 11.7072 13.411C11.8955 13.353 12.0454 13.3134 12.146 13.2885L12.2573 13.262L12.2829 13.2562H12.2872C12.4312 13.2274 12.563 13.1537 12.6648 13.0452C12.7666 12.9366 12.8334 12.7984 12.8561 12.6494C12.8788 12.5004 12.8562 12.3478 12.7916 12.2125C12.727 12.0771 12.6234 11.9655 12.4948 11.8928C12.0469 11.6516 11.57 11.4722 11.0764 11.3594C11.4295 10.7422 11.6045 10.0345 11.5809 9.3188V7.09623C11.6075 6.4211 11.4614 5.7506 11.1571 5.15176V2.82059C11.15 2.47828 11.2717 2.14639 11.497 1.89424C11.7222 1.6421 12.0334 1.48922 12.3657 1.46753C12.5332 1.46823 12.6988 1.50461 12.852 1.57438C13.0052 1.64415 13.1426 1.7458 13.2557 1.87292C13.3688 2.00004 13.455 2.14988 13.509 2.31298C13.563 2.47608 13.5835 2.64892 13.5693 2.82059V9.79135C13.5565 10.0724 13.645 10.3475 13.8176 10.5655C13.9244 10.6874 14.0625 10.7758 14.216 10.8204C14.3695 10.8651 14.5322 10.8642 14.6852 10.8179C14.8229 10.7761 14.9514 10.7093 15.0655 10.6205C15.104 10.5919 15.1369 10.5647 15.1583 10.5471L15.1868 10.52L15.1946 10.5134C15.6927 10.0862 16.238 9.72096 16.8192 9.4252C17.0893 9.28986 17.3982 9.26088 17.6875 9.34375C17.9366 9.39878 18.1613 9.5338 18.3297 9.72971C18.528 10.0144 18.6122 10.3666 18.5658 10.7137C18.5553 10.8591 18.5167 11.001 18.4524 11.1309C18.3881 11.2609 18.2993 11.3765 18.1913 11.4709L17.8973 11.6837Z" fill="#BBA9EF" stroke="#E0D9F7" stroke-width="2" mask="url(#path-1-inside-1_42_67)"/>
</svg>
