<svg width="18" height="21" viewBox="0 0 18 21" fill="none" xmlns="http://www.w3.org/2000/svg">
<mask id="path-1-inside-1_51_181" fill="white">
<path d="M17.1088 8.44417C16.7896 7.99996 16.3463 7.68802 15.8497 7.55815C15.2979 7.39492 14.7116 7.46319 14.2018 7.75006C13.8496 7.95407 13.5077 8.17972 13.1778 8.42596V2.69238C13.1901 2.34456 13.1396 1.99754 13.0291 1.67204C12.9186 1.34655 12.7506 1.04926 12.5349 0.797949C12.3193 0.546635 12.0606 0.346448 11.7741 0.209347C11.4877 0.0722466 11.1794 0.00104636 10.8678 0C10.2433 0.0205186 9.65096 0.314195 9.21842 0.817779C8.78587 1.32136 8.54771 1.99456 8.55521 2.69238V3.84736C8.36116 3.79465 8.16234 3.76692 7.96265 3.76471C7.8109 3.76471 7.65978 3.77872 7.51054 3.80744L7.461 3.81584C7.32807 3.84386 7.19764 3.88589 7.07223 3.93982C7.04778 3.95032 7.0252 3.96293 7.00137 3.97484C6.89452 4.02541 6.79226 4.08733 6.696 4.15975C6.67092 4.17796 6.64772 4.19967 6.62389 4.21928C6.53171 4.29493 6.44643 4.38038 6.36931 4.47493C6.36115 4.48474 6.35112 4.49104 6.34297 4.50155C6.32353 4.52606 6.31162 4.55478 6.29343 4.57999C6.18083 4.73952 6.08686 4.91439 6.01377 5.1004C5.57583 4.89391 5.09026 4.84924 4.62798 4.97293C4.57531 4.98623 4.5264 5.00865 4.47561 5.02616L4.39346 5.05417C4.35113 4.47558 4.13091 3.93117 3.77017 3.51327C3.56123 3.28342 3.31353 3.10217 3.04142 2.98002C2.76932 2.85787 2.47822 2.79724 2.18499 2.80165C1.59175 2.82505 1.03045 3.10766 0.62187 3.58866C0.213294 4.06966 -0.00989353 4.7106 0.00033679 5.37356C0.00033679 5.85264 0.0122507 7.96509 0.0247918 9.94865L0.0417223 12.6228C0.0417223 12.98 0.0454845 13.2763 0.0473657 13.4822V13.8051C0.0196865 14.8083 0.187996 15.8062 0.540586 16.7293C0.893176 17.6525 1.42158 18.4787 2.08905 19.1507C3.3965 20.381 5.06014 21.0378 6.76937 20.9984C7.68603 20.9836 8.59085 20.7646 9.43072 20.3541C10.2706 19.9436 11.0286 19.3499 11.6604 18.6078C12.3709 17.7221 12.9837 16.7443 13.4857 15.6955C13.6952 15.2543 13.9366 14.8319 14.2075 14.4348C14.8807 13.6247 15.6357 12.9046 16.4573 12.2887C16.5489 12.2187 16.6373 12.1444 16.7194 12.0786C16.9536 11.8764 17.1486 11.6231 17.2925 11.3341C17.4364 11.0451 17.5262 10.7265 17.5565 10.3976C17.638 9.70637 17.4777 9.00665 17.1088 8.44417ZM6.99573 6.77368C6.9951 6.61259 7.002 6.4522 7.01705 6.2925C7.01705 6.25678 7.02646 6.22806 7.03022 6.19444C7.04088 6.10899 7.05342 6.02845 7.06847 5.9563C7.08923 5.85826 7.11756 5.76242 7.15312 5.66984C7.16315 5.64462 7.17319 5.6166 7.18385 5.59419C7.21332 5.52975 7.25031 5.47022 7.29358 5.41629L7.30361 5.40578C7.33598 5.36907 7.3722 5.33686 7.41147 5.30982C7.44971 5.28155 7.49074 5.25828 7.53374 5.24048C7.58641 5.21807 7.64097 5.20126 7.69678 5.19005H7.71057C7.79351 5.17517 7.87739 5.16791 7.96139 5.16834C8.08444 5.15781 8.20802 5.17884 8.32267 5.22982C8.43733 5.28081 8.54003 5.3604 8.62293 5.46251C8.86058 5.84634 8.96781 6.31211 8.92643 6.77649V8.89523C8.92643 10.5062 8.2003 10.5062 7.96139 10.5062C7.43153 10.5062 7.19325 10.3983 7.08352 10.0292C7.07599 10.004 7.06784 9.97947 7.0622 9.95215C7.04683 9.88298 7.03531 9.8128 7.02771 9.74203C7.02771 9.72242 7.02269 9.70421 7.02081 9.6832C7.01084 9.5761 7.00436 9.46863 7.00137 9.36101V9.33719C6.99761 9.20411 6.99636 9.05703 6.99636 8.89523L6.99573 6.77368ZM5.75041 6.51873C5.75041 6.60348 5.74163 6.68403 5.74163 6.77368V9.13898C5.73582 9.50161 5.76462 9.8639 5.82753 10.2197C5.67671 10.3619 5.4935 10.4546 5.29832 10.4874C5.10313 10.5201 4.90363 10.4917 4.72204 10.4053C4.52394 10.3125 4.3549 10.1561 4.23627 9.95605C4.11764 9.75598 4.05473 9.52113 4.05548 9.28116V7.52242C4.05553 7.35096 4.08814 7.18145 4.15116 7.0251C4.21417 6.86875 4.30616 6.72911 4.42105 6.61539C4.47699 6.55725 4.53937 6.50734 4.60666 6.4669C4.633 6.45009 4.65871 6.43258 4.6863 6.41788C4.73202 6.39513 4.77918 6.37617 4.82738 6.36114C4.85247 6.35064 4.87755 6.34223 4.90326 6.33453C5.0479 6.29671 5.19808 6.29357 5.34389 6.32532C5.48969 6.35708 5.62782 6.423 5.74915 6.51873H5.75041ZM15.7293 11.1527V11.1506C14.8285 11.8288 14.0015 12.6218 13.265 13.5138C12.9389 13.9774 12.6505 14.4726 12.4022 14.993C11.9497 15.9445 11.3974 16.8323 10.7568 17.6378C10.2422 18.244 9.62457 18.7297 8.94006 19.0664C8.25554 19.4032 7.51783 19.5842 6.76999 19.5989C5.366 19.638 3.9972 19.1055 2.91864 18.1007C2.38401 17.5592 1.96227 16.8932 1.68318 16.1498C1.40408 15.4064 1.27442 14.6036 1.30335 13.7981V13.4766C1.30335 13.27 1.29959 12.9744 1.29771 12.6165L1.28078 9.94305C1.26824 7.95388 1.25632 5.85054 1.25632 5.37776C1.24555 5.0859 1.33615 4.80067 1.5092 4.58166C1.68226 4.36265 1.92438 4.22679 2.18499 4.20247C2.31309 4.19724 2.44083 4.22069 2.56069 4.27145C2.68055 4.32221 2.7901 4.39926 2.8829 4.49805C2.98014 4.61535 3.05524 4.75332 3.10372 4.90374C3.1522 5.05416 3.17306 5.21394 3.16507 5.37356V6.13281C2.92916 6.54847 2.80349 7.03028 2.80263 7.52242V9.28746C2.80372 9.67159 2.88085 10.0507 3.0285 10.3976C3.17615 10.7445 3.39067 11.0507 3.65668 11.2941C3.65294 11.3154 3.65043 11.3369 3.64915 11.3586C3.66104 11.5438 3.73825 11.7161 3.86382 11.8377C3.9894 11.9593 4.15306 12.0203 4.31885 12.0072C5.34425 11.9167 6.37334 11.8893 7.40143 11.9252C7.80588 11.9441 8.19654 11.9798 8.56462 12.0317C8.52386 12.052 8.48623 12.0688 8.44485 12.0905C6.97 12.8221 5.68826 13.9648 4.72267 15.4091C4.67462 15.4838 4.64022 15.5684 4.62143 15.658C4.60264 15.7475 4.59984 15.8404 4.61317 15.9312C4.6401 16.1145 4.73114 16.2784 4.86626 16.3868C5.00138 16.4952 5.16952 16.5392 5.33368 16.5091C5.49785 16.4791 5.64459 16.3774 5.74163 16.2264C6.58017 14.979 7.69118 13.9927 8.96844 13.3618C9.3962 13.1403 9.8375 12.9531 10.289 12.8014C10.4546 12.7461 10.5862 12.7083 10.6746 12.6845L10.7725 12.6592L10.795 12.6536H10.7988C10.9253 12.6262 11.0412 12.5559 11.1306 12.4522C11.2201 12.3486 11.2788 12.2167 11.2987 12.0745C11.3187 11.9322 11.2989 11.7866 11.2421 11.6574C11.1853 11.5282 11.0942 11.4216 10.9813 11.3523C10.5876 11.122 10.1685 10.9508 9.7347 10.8431C10.045 10.254 10.1988 9.57836 10.178 8.89523V6.77368C10.2014 6.12924 10.073 5.48922 9.80555 4.91759V2.69238C9.7993 2.36563 9.90633 2.04882 10.1043 1.80814C10.3022 1.56746 10.5758 1.42153 10.8678 1.40082C11.015 1.40149 11.1605 1.43622 11.2951 1.50282C11.4298 1.56942 11.5506 1.66645 11.65 1.78779C11.7493 1.90913 11.8252 2.05216 11.8726 2.20785C11.92 2.36354 11.9381 2.52851 11.9256 2.69238V9.3463C11.9143 9.61456 11.9921 9.87721 12.1438 10.0852C12.2377 10.2016 12.359 10.286 12.494 10.3286C12.6289 10.3712 12.7718 10.3704 12.9063 10.3262C13.0273 10.2863 13.1402 10.2225 13.2405 10.1378C13.2744 10.1104 13.3033 10.0845 13.3221 10.0677L13.3471 10.0418L13.354 10.0355C13.7917 9.62776 14.271 9.27911 14.7818 8.99679C15.0192 8.8676 15.2906 8.83994 15.545 8.91905C15.7638 8.97158 15.9613 9.10045 16.1093 9.28746C16.2836 9.55922 16.3576 9.89542 16.3169 10.2267C16.3076 10.3655 16.2737 10.5009 16.2172 10.625C16.1607 10.7491 16.0826 10.8594 15.9877 10.9495L15.7293 11.1527Z"/>
</mask>
<path d="M17.1088 8.44417C16.7896 7.99996 16.3463 7.68802 15.8497 7.55815C15.2979 7.39492 14.7116 7.46319 14.2018 7.75006C13.8496 7.95407 13.5077 8.17972 13.1778 8.42596V2.69238C13.1901 2.34456 13.1396 1.99754 13.0291 1.67204C12.9186 1.34655 12.7506 1.04926 12.5349 0.797949C12.3193 0.546635 12.0606 0.346448 11.7741 0.209347C11.4877 0.0722466 11.1794 0.00104636 10.8678 0C10.2433 0.0205186 9.65096 0.314195 9.21842 0.817779C8.78587 1.32136 8.54771 1.99456 8.55521 2.69238V3.84736C8.36116 3.79465 8.16234 3.76692 7.96265 3.76471C7.8109 3.76471 7.65978 3.77872 7.51054 3.80744L7.461 3.81584C7.32807 3.84386 7.19764 3.88589 7.07223 3.93982C7.04778 3.95032 7.0252 3.96293 7.00137 3.97484C6.89452 4.02541 6.79226 4.08733 6.696 4.15975C6.67092 4.17796 6.64772 4.19967 6.62389 4.21928C6.53171 4.29493 6.44643 4.38038 6.36931 4.47493C6.36115 4.48474 6.35112 4.49104 6.34297 4.50155C6.32353 4.52606 6.31162 4.55478 6.29343 4.57999C6.18083 4.73952 6.08686 4.91439 6.01377 5.1004C5.57583 4.89391 5.09026 4.84924 4.62798 4.97293C4.57531 4.98623 4.5264 5.00865 4.47561 5.02616L4.39346 5.05417C4.35113 4.47558 4.13091 3.93117 3.77017 3.51327C3.56123 3.28342 3.31353 3.10217 3.04142 2.98002C2.76932 2.85787 2.47822 2.79724 2.18499 2.80165C1.59175 2.82505 1.03045 3.10766 0.62187 3.58866C0.213294 4.06966 -0.00989353 4.7106 0.00033679 5.37356C0.00033679 5.85264 0.0122507 7.96509 0.0247918 9.94865L0.0417223 12.6228C0.0417223 12.98 0.0454845 13.2763 0.0473657 13.4822V13.8051C0.0196865 14.8083 0.187996 15.8062 0.540586 16.7293C0.893176 17.6525 1.42158 18.4787 2.08905 19.1507C3.3965 20.381 5.06014 21.0378 6.76937 20.9984C7.68603 20.9836 8.59085 20.7646 9.43072 20.3541C10.2706 19.9436 11.0286 19.3499 11.6604 18.6078C12.3709 17.7221 12.9837 16.7443 13.4857 15.6955C13.6952 15.2543 13.9366 14.8319 14.2075 14.4348C14.8807 13.6247 15.6357 12.9046 16.4573 12.2887C16.5489 12.2187 16.6373 12.1444 16.7194 12.0786C16.9536 11.8764 17.1486 11.6231 17.2925 11.3341C17.4364 11.0451 17.5262 10.7265 17.5565 10.3976C17.638 9.70637 17.4777 9.00665 17.1088 8.44417ZM6.99573 6.77368C6.9951 6.61259 7.002 6.4522 7.01705 6.2925C7.01705 6.25678 7.02646 6.22806 7.03022 6.19444C7.04088 6.10899 7.05342 6.02845 7.06847 5.9563C7.08923 5.85826 7.11756 5.76242 7.15312 5.66984C7.16315 5.64462 7.17319 5.6166 7.18385 5.59419C7.21332 5.52975 7.25031 5.47022 7.29358 5.41629L7.30361 5.40578C7.33598 5.36907 7.3722 5.33686 7.41147 5.30982C7.44971 5.28155 7.49074 5.25828 7.53374 5.24048C7.58641 5.21807 7.64097 5.20126 7.69678 5.19005H7.71057C7.79351 5.17517 7.87739 5.16791 7.96139 5.16834C8.08444 5.15781 8.20802 5.17884 8.32267 5.22982C8.43733 5.28081 8.54003 5.3604 8.62293 5.46251C8.86058 5.84634 8.96781 6.31211 8.92643 6.77649V8.89523C8.92643 10.5062 8.2003 10.5062 7.96139 10.5062C7.43153 10.5062 7.19325 10.3983 7.08352 10.0292C7.07599 10.004 7.06784 9.97947 7.0622 9.95215C7.04683 9.88298 7.03531 9.8128 7.02771 9.74203C7.02771 9.72242 7.02269 9.70421 7.02081 9.6832C7.01084 9.5761 7.00436 9.46863 7.00137 9.36101V9.33719C6.99761 9.20411 6.99636 9.05703 6.99636 8.89523L6.99573 6.77368ZM5.75041 6.51873C5.75041 6.60348 5.74163 6.68403 5.74163 6.77368V9.13898C5.73582 9.50161 5.76462 9.8639 5.82753 10.2197C5.67671 10.3619 5.4935 10.4546 5.29832 10.4874C5.10313 10.5201 4.90363 10.4917 4.72204 10.4053C4.52394 10.3125 4.3549 10.1561 4.23627 9.95605C4.11764 9.75598 4.05473 9.52113 4.05548 9.28116V7.52242C4.05553 7.35096 4.08814 7.18145 4.15116 7.0251C4.21417 6.86875 4.30616 6.72911 4.42105 6.61539C4.47699 6.55725 4.53937 6.50734 4.60666 6.4669C4.633 6.45009 4.65871 6.43258 4.6863 6.41788C4.73202 6.39513 4.77918 6.37617 4.82738 6.36114C4.85247 6.35064 4.87755 6.34223 4.90326 6.33453C5.0479 6.29671 5.19808 6.29357 5.34389 6.32532C5.48969 6.35708 5.62782 6.423 5.74915 6.51873H5.75041ZM15.7293 11.1527V11.1506C14.8285 11.8288 14.0015 12.6218 13.265 13.5138C12.9389 13.9774 12.6505 14.4726 12.4022 14.993C11.9497 15.9445 11.3974 16.8323 10.7568 17.6378C10.2422 18.244 9.62457 18.7297 8.94006 19.0664C8.25554 19.4032 7.51783 19.5842 6.76999 19.5989C5.366 19.638 3.9972 19.1055 2.91864 18.1007C2.38401 17.5592 1.96227 16.8932 1.68318 16.1498C1.40408 15.4064 1.27442 14.6036 1.30335 13.7981V13.4766C1.30335 13.27 1.29959 12.9744 1.29771 12.6165L1.28078 9.94305C1.26824 7.95388 1.25632 5.85054 1.25632 5.37776C1.24555 5.0859 1.33615 4.80067 1.5092 4.58166C1.68226 4.36265 1.92438 4.22679 2.18499 4.20247C2.31309 4.19724 2.44083 4.22069 2.56069 4.27145C2.68055 4.32221 2.7901 4.39926 2.8829 4.49805C2.98014 4.61535 3.05524 4.75332 3.10372 4.90374C3.1522 5.05416 3.17306 5.21394 3.16507 5.37356V6.13281C2.92916 6.54847 2.80349 7.03028 2.80263 7.52242V9.28746C2.80372 9.67159 2.88085 10.0507 3.0285 10.3976C3.17615 10.7445 3.39067 11.0507 3.65668 11.2941C3.65294 11.3154 3.65043 11.3369 3.64915 11.3586C3.66104 11.5438 3.73825 11.7161 3.86382 11.8377C3.9894 11.9593 4.15306 12.0203 4.31885 12.0072C5.34425 11.9167 6.37334 11.8893 7.40143 11.9252C7.80588 11.9441 8.19654 11.9798 8.56462 12.0317C8.52386 12.052 8.48623 12.0688 8.44485 12.0905C6.97 12.8221 5.68826 13.9648 4.72267 15.4091C4.67462 15.4838 4.64022 15.5684 4.62143 15.658C4.60264 15.7475 4.59984 15.8404 4.61317 15.9312C4.6401 16.1145 4.73114 16.2784 4.86626 16.3868C5.00138 16.4952 5.16952 16.5392 5.33368 16.5091C5.49785 16.4791 5.64459 16.3774 5.74163 16.2264C6.58017 14.979 7.69118 13.9927 8.96844 13.3618C9.3962 13.1403 9.8375 12.9531 10.289 12.8014C10.4546 12.7461 10.5862 12.7083 10.6746 12.6845L10.7725 12.6592L10.795 12.6536H10.7988C10.9253 12.6262 11.0412 12.5559 11.1306 12.4522C11.2201 12.3486 11.2788 12.2167 11.2987 12.0745C11.3187 11.9322 11.2989 11.7866 11.2421 11.6574C11.1853 11.5282 11.0942 11.4216 10.9813 11.3523C10.5876 11.122 10.1685 10.9508 9.7347 10.8431C10.045 10.254 10.1988 9.57836 10.178 8.89523V6.77368C10.2014 6.12924 10.073 5.48922 9.80555 4.91759V2.69238C9.7993 2.36563 9.90633 2.04882 10.1043 1.80814C10.3022 1.56746 10.5758 1.42153 10.8678 1.40082C11.015 1.40149 11.1605 1.43622 11.2951 1.50282C11.4298 1.56942 11.5506 1.66645 11.65 1.78779C11.7493 1.90913 11.8252 2.05216 11.8726 2.20785C11.92 2.36354 11.9381 2.52851 11.9256 2.69238V9.3463C11.9143 9.61456 11.9921 9.87721 12.1438 10.0852C12.2377 10.2016 12.359 10.286 12.494 10.3286C12.6289 10.3712 12.7718 10.3704 12.9063 10.3262C13.0273 10.2863 13.1402 10.2225 13.2405 10.1378C13.2744 10.1104 13.3033 10.0845 13.3221 10.0677L13.3471 10.0418L13.354 10.0355C13.7917 9.62776 14.271 9.27911 14.7818 8.99679C15.0192 8.8676 15.2906 8.83994 15.545 8.91905C15.7638 8.97158 15.9613 9.10045 16.1093 9.28746C16.2836 9.55922 16.3576 9.89542 16.3169 10.2267C16.3076 10.3655 16.2737 10.5009 16.2172 10.625C16.1607 10.7491 16.0826 10.8594 15.9877 10.9495L15.7293 11.1527Z" fill="#BBA9EF" stroke="black" stroke-width="2" mask="url(#path-1-inside-1_51_181)"/>
</svg>
