<svg width="22" height="28" viewBox="0 0 22 28" fill="none" xmlns="http://www.w3.org/2000/svg">
<path d="M1.28494 22.2067C1.28494 22.2417 1.28514 22.2767 1.28554 22.3115L1.28501 22.3095C1.28484 22.3089 1.28467 22.3082 1.28451 22.3076C1.09997 21.5886 1.00257 20.7569 1.00257 19.8069C1.00257 18.441 1.39531 17.3316 2.13877 16.4258L2.89782 15.5009L2.29125 15.1605C2.29733 14.9359 2.31677 14.6263 2.3527 14.2231L2.35376 14.2111L2.35455 14.1991C2.39355 13.5984 2.48776 13.0055 2.63489 12.4298C3.40134 12.7069 4.36661 13.2633 5.5484 14.1775L5.94997 14.4882L6.43804 14.3483C6.877 14.2225 7.54291 14.1382 8.48573 14.1382C9.48484 14.1382 10.1381 14.225 10.5093 14.3421L11.0036 14.498L11.4166 14.1848C12.1428 13.6341 12.8204 13.1982 13.4526 12.8733C13.8449 12.6767 14.1377 12.5453 14.3478 12.4622C14.4835 13.0055 14.5742 13.5866 14.6186 14.2071L14.6192 14.2153L14.6199 14.2234C14.6554 14.6263 14.6745 14.9358 14.6805 15.1604L14.0743 15.5005L14.8323 16.4253C15.5763 17.333 15.9689 18.4413 15.9689 19.8069C15.9689 20.6935 15.884 21.4771 15.7227 22.1622C15.7127 20.9452 15.2921 19.8741 14.4434 19.0216C13.9758 18.528 13.3707 18.189 12.7007 18.0717C12.1073 17.9641 11.301 17.9758 10.3512 18.0601L10.3495 18.0602C9.41945 18.1444 8.81731 18.1786 8.52209 18.1786C8.09193 18.1786 7.6193 18.1561 7.01167 18.1022L7.00937 18.102C6.37108 18.047 5.86361 18.0119 5.49008 17.9934L5.47514 17.9927L5.46018 17.9924C4.97689 17.983 4.49531 18.0432 4.02777 18.1711C3.46826 18.3087 2.96031 18.5985 2.54626 19.0011L2.5394 19.0078L2.53267 19.0146C1.69487 19.8609 1.28494 20.9514 1.28494 22.2067ZM11.4297 23.2719L11.4282 23.2743C11.4254 23.2786 11.4227 23.2827 11.42 23.2867C11.4173 23.2827 11.4146 23.2786 11.4118 23.2743L11.4102 23.2719C11.3015 23.1054 11.217 22.8603 11.217 22.4964C11.217 22.1329 11.3001 21.8892 11.4125 21.7147C11.415 21.7109 11.4175 21.7072 11.4199 21.7036C11.4229 21.708 11.4259 21.7126 11.4291 21.7173C11.5406 21.8916 11.623 22.1347 11.623 22.4964C11.623 22.8603 11.5385 23.1054 11.4297 23.2719ZM5.56243 23.2719L5.56242 23.2719L5.55959 23.2763C5.55729 23.2799 5.55503 23.2833 5.5528 23.2867C5.54969 23.2821 5.54649 23.2773 5.54321 23.2723L5.54296 23.2719C5.43421 23.1054 5.34969 22.8603 5.34969 22.4964C5.34969 22.1335 5.43258 21.89 5.54468 21.7156C5.5474 21.7114 5.55007 21.7074 5.55269 21.7036C5.55545 21.7077 5.55828 21.7119 5.56116 21.7163C5.67304 21.8906 5.7557 22.134 5.7557 22.4964C5.7557 22.8603 5.67118 23.1054 5.56243 23.2719Z" fill="#BBA9EF" stroke="black" stroke-width="2"/>
<g clip-path="url(#clip0_51_184)">
<path d="M20.0049 4.92284C19.9652 4.90874 19.9221 4.91283 19.8851 4.93423C19.8481 4.95563 19.8202 4.99257 19.8075 5.03693C19.7949 5.0813 19.7986 5.12945 19.8177 5.17079C19.8369 5.21214 19.87 5.24329 19.9097 5.2574C21.1379 5.69446 21.6857 6.34637 21.6857 7.37215C21.6857 8.28454 20.9405 8.99262 20.4968 9.33385C20.4758 9.34997 20.4586 9.37156 20.4467 9.39676C20.4348 9.42195 20.4286 9.45 20.4286 9.47848V10.8206C20.0512 10.6607 19.7141 10.4011 19.4461 10.064C19.4279 10.0414 19.4049 10.0244 19.3791 10.0147C19.3534 10.0049 19.3258 10.0027 19.299 10.0082C19.2095 10.0275 19.118 10.0549 19.0253 10.0826C18.865 10.1307 18.6997 10.1806 18.5429 10.1806C17.7358 10.1806 17.1707 9.98681 16.593 9.51253C16.5594 9.48493 16.5174 9.47336 16.4762 9.48037C16.4349 9.48738 16.3979 9.5124 16.3732 9.54992C16.3485 9.58744 16.3381 9.63439 16.3444 9.68045C16.3507 9.7265 16.3731 9.76788 16.4067 9.79549C17.0437 10.3186 17.6625 10.5316 18.5429 10.5316C18.7412 10.5316 18.9272 10.4758 19.107 10.4218C19.1629 10.4046 19.2186 10.3877 19.2736 10.3733C19.861 11.0663 20.5254 11.2239 20.5543 11.2302C20.5771 11.2355 20.6007 11.235 20.6233 11.2288C20.646 11.2225 20.6671 11.2107 20.685 11.1941C20.7031 11.1777 20.7177 11.157 20.7277 11.1335C20.7377 11.11 20.7429 11.0843 20.7429 11.0582V9.57011C21.5543 8.92382 22 8.14588 22 7.37215C22 6.18524 21.3661 5.40695 20.0049 4.92284Z" fill="black"/>
<path d="M19.1714 4.73924C19.1714 2.03752 16.9658 0 14.0413 0C11.1021 0 8.79999 2.08211 8.79999 4.73994C8.79999 6.33338 9.80916 7.47501 10.6857 8.16589V10.4955C10.6859 10.5247 10.6925 10.5535 10.7051 10.5791C10.7177 10.6048 10.7358 10.6265 10.7578 10.6424C10.7798 10.6583 10.8049 10.6678 10.831 10.6701C10.8571 10.6724 10.8833 10.6674 10.9073 10.6556C10.9532 10.6328 12.0258 10.0883 12.9435 8.96735C13.3411 9.04985 13.7909 9.12919 14.1988 9.12919C17.1729 9.12919 19.1714 7.36478 19.1714 4.73924ZM14.1985 8.77813C13.7868 8.77813 13.3188 8.69002 12.9153 8.60401C12.8885 8.59852 12.861 8.60077 12.8352 8.61054C12.8095 8.62031 12.7864 8.63728 12.7682 8.65983C12.1239 9.47146 11.3668 9.98717 11 10.2094V8.07427C11 8.04579 10.9938 8.01774 10.9819 7.99254C10.97 7.96734 10.9528 7.94575 10.9318 7.92963C10.1027 7.29247 9.11427 6.22245 9.11427 4.73994C9.11427 2.2787 11.2784 0.351055 14.0413 0.351055C16.7869 0.351055 18.8571 2.23762 18.8571 4.73924C18.8571 7.1552 16.9849 8.77813 14.1985 8.77813Z" fill="black"/>
<path d="M13.9857 4.03715C13.639 4.03715 13.3571 4.35205 13.3571 4.73926C13.3571 5.12648 13.639 5.44137 13.9857 5.44137C14.3323 5.44137 14.6143 5.12648 14.6143 4.73926C14.6143 4.35205 14.3323 4.03715 13.9857 4.03715ZM13.9857 5.09032C13.9048 5.08628 13.8284 5.04752 13.7724 4.98213C13.7164 4.91674 13.6851 4.82974 13.6851 4.73926C13.6851 4.64878 13.7164 4.56179 13.7724 4.4964C13.8284 4.43101 13.9048 4.39225 13.9857 4.38821C14.0666 4.39225 14.143 4.43101 14.199 4.4964C14.255 4.56179 14.2862 4.64878 14.2862 4.73926C14.2862 4.82974 14.255 4.91674 14.199 4.98213C14.143 5.04752 14.0666 5.08628 13.9857 5.09032ZM16.1857 4.03715C15.839 4.03715 15.5571 4.35205 15.5571 4.73926C15.5571 5.12648 15.839 5.44137 16.1857 5.44137C16.5323 5.44137 16.8143 5.12648 16.8143 4.73926C16.8143 4.35205 16.5323 4.03715 16.1857 4.03715ZM16.1857 5.09032C16.1048 5.08628 16.0284 5.04752 15.9724 4.98213C15.9164 4.91674 15.8851 4.82974 15.8851 4.73926C15.8851 4.64878 15.9164 4.56179 15.9724 4.4964C16.0284 4.43101 16.1048 4.39225 16.1857 4.38821C16.2666 4.39225 16.343 4.43101 16.399 4.4964C16.455 4.56179 16.4862 4.64878 16.4862 4.73926C16.4862 4.82974 16.455 4.91674 16.399 4.98213C16.343 5.04752 16.2666 5.08628 16.1857 5.09032ZM11.7857 4.07051C11.439 4.07051 11.1571 4.3854 11.1571 4.77262C11.1571 5.15983 11.439 5.47473 11.7857 5.47473C12.1323 5.47473 12.4143 5.15983 12.4143 4.77262C12.4143 4.3854 12.1323 4.07051 11.7857 4.07051ZM11.7857 5.12367C11.7048 5.11963 11.6284 5.08087 11.5724 5.01548C11.5164 4.95009 11.4851 4.8631 11.4851 4.77262C11.4851 4.68214 11.5164 4.59514 11.5724 4.52975C11.6284 4.46436 11.7048 4.4256 11.7857 4.42156C11.8666 4.4256 11.943 4.46436 11.999 4.52975C12.055 4.59514 12.0862 4.68214 12.0862 4.77262C12.0862 4.8631 12.055 4.95009 11.999 5.01548C11.943 5.08087 11.8666 5.11963 11.7857 5.12367Z" fill="black"/>
</g>
<defs>
<clipPath id="clip0_51_184">
<rect width="13.1661" height="11.2049" fill="white" transform="translate(8.79999) scale(1.00257)"/>
</clipPath>
</defs>
</svg>
