<svg width="29" height="30" viewBox="0 0 29 30" fill="none" xmlns="http://www.w3.org/2000/svg">
<mask id="path-1-inside-1_0_59" fill="white">
<path d="M27.4897 12.0631C26.9767 11.4285 26.2645 10.9829 25.4666 10.7973C24.58 10.5642 23.638 10.6617 22.8188 11.0715C22.2529 11.3629 21.7036 11.6853 21.1736 12.0371V3.84626C21.1933 3.34937 21.1121 2.85362 20.9346 2.38863C20.7571 1.92364 20.4871 1.49895 20.1406 1.13993C19.7941 0.780906 19.3784 0.494924 18.9181 0.299067C18.4579 0.103209 17.9626 0.0014948 17.4619 0C16.4584 0.0293122 15.5067 0.44885 14.8117 1.16825C14.1167 1.88766 13.7341 2.84937 13.7461 3.84626V5.49623C13.4343 5.42092 13.1149 5.38131 12.794 5.37816C12.5502 5.37816 12.3074 5.39817 12.0676 5.43919L11.988 5.4512C11.7744 5.49122 11.5649 5.55126 11.3633 5.6283C11.3241 5.64331 11.2878 5.66132 11.2495 5.67833C11.0778 5.75058 10.9135 5.83904 10.7588 5.94249C10.7185 5.9685 10.6813 5.99952 10.643 6.02754C10.4949 6.1356 10.3578 6.25767 10.2339 6.39275C10.2208 6.40676 10.2047 6.41577 10.1916 6.43077C10.1604 6.46579 10.1412 6.50682 10.112 6.54284C9.93109 6.77073 9.78009 7.02054 9.66265 7.28628C8.959 6.99129 8.1788 6.92748 7.43604 7.10417C7.3514 7.12318 7.27282 7.1552 7.19121 7.18021L7.05922 7.22024C6.9912 6.39368 6.63737 5.61594 6.05775 5.01895C5.72202 4.69059 5.32403 4.43167 4.88682 4.25717C4.44962 4.08266 3.98189 3.99605 3.51074 4.00235C2.55755 4.03578 1.65567 4.4395 0.999193 5.12665C0.342712 5.81379 -0.0158965 6.72943 0.00054114 7.6765C0.00054114 8.36091 0.0196839 11.3787 0.0398343 14.2123L0.0670375 18.0326C0.0670375 18.5429 0.0730825 18.9661 0.076105 19.2603V19.7216C0.0316314 21.1547 0.302063 22.5802 0.868589 23.899C1.43512 25.2178 2.28413 26.3982 3.35659 27.3581C5.45734 29.1157 8.13041 30.0539 10.8767 29.9976C12.3496 29.9766 13.8034 29.6637 15.1529 29.0773C16.5024 28.4909 17.7203 27.6427 18.7354 26.5826C19.877 25.3172 20.8616 23.9204 21.6683 22.4222C22.0048 21.7918 22.3927 21.1884 22.8279 20.6211C23.9096 19.4639 25.1227 18.4351 26.4429 17.5553C26.59 17.4552 26.7321 17.3492 26.864 17.2551C27.2403 16.9662 27.5536 16.6044 27.7848 16.1915C28.016 15.7787 28.1603 15.3236 28.2091 14.8537C28.34 13.8662 28.0823 12.8666 27.4897 12.0631ZM11.2404 9.67668C11.2394 9.44654 11.2505 9.21741 11.2747 8.98928C11.2747 8.93825 11.2898 8.89722 11.2958 8.84919C11.313 8.72712 11.3331 8.61205 11.3573 8.50899C11.3907 8.36894 11.4362 8.23201 11.4933 8.09975C11.5094 8.06373 11.5256 8.02371 11.5427 7.99169C11.59 7.89964 11.6495 7.81459 11.719 7.73754L11.7351 7.72253C11.7871 7.67009 11.8453 7.62407 11.9084 7.58545C11.9699 7.54506 12.0358 7.51182 12.1049 7.48639C12.1895 7.45437 12.2772 7.43036 12.3668 7.41435H12.389C12.5223 7.39309 12.657 7.38271 12.792 7.38333C12.9897 7.36828 13.1883 7.39833 13.3725 7.47116C13.5567 7.544 13.7217 7.6577 13.8549 7.80358C14.2368 8.3519 14.4091 9.01729 14.3426 9.68068V12.7075C14.3426 15.0088 13.1759 15.0088 12.792 15.0088C11.9407 15.0088 11.5578 14.8547 11.3815 14.3274C11.3694 14.2914 11.3563 14.2564 11.3472 14.2173C11.3225 14.1185 11.304 14.0183 11.2918 13.9172C11.2918 13.8892 11.2838 13.8631 11.2807 13.8331C11.2647 13.6801 11.2543 13.5266 11.2495 13.3728V13.3388C11.2435 13.1487 11.2414 12.9386 11.2414 12.7075L11.2404 9.67668ZM9.2395 9.31246C9.2395 9.43354 9.22539 9.5486 9.22539 9.67668V13.0557C9.21606 13.5737 9.26233 14.0913 9.36342 14.5996C9.12109 14.8027 8.82672 14.9351 8.5131 14.9819C8.19948 15.0288 7.87893 14.9882 7.58716 14.8647C7.26886 14.7321 6.99726 14.5087 6.80665 14.2229C6.61604 13.9371 6.51496 13.6016 6.51617 13.2588V10.7463C6.51625 10.5014 6.56864 10.2592 6.6699 10.0358C6.77115 9.81249 6.91895 9.613 7.10355 9.45055C7.19344 9.36748 7.29366 9.29619 7.40178 9.23842C7.4441 9.21441 7.4854 9.18939 7.52974 9.16838C7.6032 9.13589 7.67897 9.1088 7.75643 9.08733C7.79673 9.07232 7.83703 9.06032 7.87834 9.04931C8.11074 8.99528 8.35204 8.9908 8.58632 9.03616C8.8206 9.08152 9.04253 9.17569 9.23748 9.31246H9.2395ZM25.2732 15.9323V15.9293C23.8258 16.8982 22.497 18.0312 21.3136 19.3053C20.7897 19.9677 20.3262 20.6751 19.9273 21.4186C19.2003 22.7778 18.3128 24.0462 17.2835 25.1968C16.4567 26.0629 15.4643 26.7567 14.3645 27.2377C13.2646 27.7188 12.0793 27.9774 10.8777 27.9984C8.62186 28.0542 6.42252 27.2935 4.68954 25.8582C3.83052 25.0846 3.1529 24.1332 2.70446 23.0711C2.25602 22.0091 2.04769 20.8623 2.09417 19.7116V19.2523C2.09417 18.9571 2.08812 18.5349 2.0851 18.0236L2.0579 14.2043C2.03775 11.3627 2.0186 8.35791 2.0186 7.68251C2.00129 7.26556 2.14687 6.85809 2.42492 6.54522C2.70298 6.23235 3.092 6.03827 3.51074 6.00352C3.71657 5.99604 3.92182 6.02955 4.1144 6.10207C4.30699 6.17458 4.48302 6.28465 4.63211 6.42577C4.78836 6.59334 4.90903 6.79045 4.98692 7.00533C5.06481 7.22022 5.09834 7.44848 5.08549 7.6765V8.76114C4.70644 9.35494 4.50453 10.0432 4.50315 10.7463V13.2678C4.50489 13.8165 4.62882 14.3581 4.86606 14.8537C5.1033 15.3493 5.44797 15.7867 5.87539 16.1345C5.86938 16.1649 5.86534 16.1956 5.8633 16.2265C5.88239 16.4911 6.00645 16.7372 6.20822 16.911C6.40999 17.0847 6.67295 17.1718 6.93933 17.1531C8.5869 17.0238 10.2404 16.9847 11.8923 17.036C12.5421 17.063 13.1698 17.114 13.7612 17.1881C13.6958 17.2171 13.6353 17.2411 13.5688 17.2721C11.1991 18.3172 9.13965 19.9497 7.58817 22.0129C7.51097 22.1197 7.4557 22.2405 7.42551 22.3685C7.39532 22.4964 7.39081 22.6291 7.41224 22.7588C7.45551 23.0207 7.60178 23.2549 7.81889 23.4097C8.036 23.5646 8.30616 23.6274 8.56993 23.5845C8.8337 23.5415 9.06947 23.3962 9.22539 23.1806C10.5727 21.3985 12.3579 19.9895 14.4101 19.0882C15.0974 18.7718 15.8065 18.5044 16.5319 18.2877C16.7979 18.2087 17.0095 18.1547 17.1515 18.1206L17.3087 18.0846L17.345 18.0766H17.351C17.5543 18.0374 17.7405 17.9369 17.8842 17.7889C18.028 17.6408 18.1223 17.4524 18.1543 17.2492C18.1864 17.046 18.1546 16.838 18.0633 16.6534C17.972 16.4688 17.8257 16.3166 17.6442 16.2175C17.0117 15.8885 16.3383 15.644 15.6413 15.4901C16.1399 14.6485 16.387 13.6833 16.3536 12.7075V9.67668C16.3912 8.75604 16.1848 7.84173 15.7551 7.02512V3.84626C15.7451 3.37947 15.9171 2.92689 16.2351 2.58306C16.5532 2.23923 16.9927 2.03075 17.4619 2.00117C17.6984 2.00213 17.9322 2.05174 18.1485 2.14688C18.3648 2.24203 18.559 2.38064 18.7186 2.55399C18.8783 2.72733 19.0001 2.93165 19.0764 3.15406C19.1526 3.37647 19.1816 3.61216 19.1615 3.84626V13.3518C19.1434 13.7351 19.2683 14.1103 19.5122 14.4075C19.6629 14.5737 19.858 14.6942 20.0747 14.7551C20.2915 14.816 20.5212 14.8148 20.7373 14.7517C20.9318 14.6946 21.1131 14.6036 21.2743 14.4825C21.3287 14.4435 21.3751 14.4065 21.4053 14.3824L21.4456 14.3454L21.4567 14.3364C22.16 13.7539 22.93 13.2559 23.7508 12.8525C24.1321 12.668 24.5683 12.6285 24.977 12.7415C25.3286 12.8165 25.6459 13.0006 25.8837 13.2678C26.1638 13.656 26.2827 14.1363 26.2172 14.6096C26.2023 14.8079 26.1478 15.0013 26.057 15.1786C25.9662 15.3558 25.8409 15.5134 25.6883 15.6422L25.2732 15.9323Z"/>
</mask>
<path d="M27.4897 12.0631C26.9767 11.4285 26.2645 10.9829 25.4666 10.7973C24.58 10.5642 23.638 10.6617 22.8188 11.0715C22.2529 11.3629 21.7036 11.6853 21.1736 12.0371V3.84626C21.1933 3.34937 21.1121 2.85362 20.9346 2.38863C20.7571 1.92364 20.4871 1.49895 20.1406 1.13993C19.7941 0.780906 19.3784 0.494924 18.9181 0.299067C18.4579 0.103209 17.9626 0.0014948 17.4619 0C16.4584 0.0293122 15.5067 0.44885 14.8117 1.16825C14.1167 1.88766 13.7341 2.84937 13.7461 3.84626V5.49623C13.4343 5.42092 13.1149 5.38131 12.794 5.37816C12.5502 5.37816 12.3074 5.39817 12.0676 5.43919L11.988 5.4512C11.7744 5.49122 11.5649 5.55126 11.3633 5.6283C11.3241 5.64331 11.2878 5.66132 11.2495 5.67833C11.0778 5.75058 10.9135 5.83904 10.7588 5.94249C10.7185 5.9685 10.6813 5.99952 10.643 6.02754C10.4949 6.1356 10.3578 6.25767 10.2339 6.39275C10.2208 6.40676 10.2047 6.41577 10.1916 6.43077C10.1604 6.46579 10.1412 6.50682 10.112 6.54284C9.93109 6.77073 9.78009 7.02054 9.66265 7.28628C8.959 6.99129 8.1788 6.92748 7.43604 7.10417C7.3514 7.12318 7.27282 7.1552 7.19121 7.18021L7.05922 7.22024C6.9912 6.39368 6.63737 5.61594 6.05775 5.01895C5.72202 4.69059 5.32403 4.43167 4.88682 4.25717C4.44962 4.08266 3.98189 3.99605 3.51074 4.00235C2.55755 4.03578 1.65567 4.4395 0.999193 5.12665C0.342712 5.81379 -0.0158965 6.72943 0.00054114 7.6765C0.00054114 8.36091 0.0196839 11.3787 0.0398343 14.2123L0.0670375 18.0326C0.0670375 18.5429 0.0730825 18.9661 0.076105 19.2603V19.7216C0.0316314 21.1547 0.302063 22.5802 0.868589 23.899C1.43512 25.2178 2.28413 26.3982 3.35659 27.3581C5.45734 29.1157 8.13041 30.0539 10.8767 29.9976C12.3496 29.9766 13.8034 29.6637 15.1529 29.0773C16.5024 28.4909 17.7203 27.6427 18.7354 26.5826C19.877 25.3172 20.8616 23.9204 21.6683 22.4222C22.0048 21.7918 22.3927 21.1884 22.8279 20.6211C23.9096 19.4639 25.1227 18.4351 26.4429 17.5553C26.59 17.4552 26.7321 17.3492 26.864 17.2551C27.2403 16.9662 27.5536 16.6044 27.7848 16.1915C28.016 15.7787 28.1603 15.3236 28.2091 14.8537C28.34 13.8662 28.0823 12.8666 27.4897 12.0631ZM11.2404 9.67668C11.2394 9.44654 11.2505 9.21741 11.2747 8.98928C11.2747 8.93825 11.2898 8.89722 11.2958 8.84919C11.313 8.72712 11.3331 8.61205 11.3573 8.50899C11.3907 8.36894 11.4362 8.23201 11.4933 8.09975C11.5094 8.06373 11.5256 8.02371 11.5427 7.99169C11.59 7.89964 11.6495 7.81459 11.719 7.73754L11.7351 7.72253C11.7871 7.67009 11.8453 7.62407 11.9084 7.58545C11.9699 7.54506 12.0358 7.51182 12.1049 7.48639C12.1895 7.45437 12.2772 7.43036 12.3668 7.41435H12.389C12.5223 7.39309 12.657 7.38271 12.792 7.38333C12.9897 7.36828 13.1883 7.39833 13.3725 7.47116C13.5567 7.544 13.7217 7.6577 13.8549 7.80358C14.2368 8.3519 14.4091 9.01729 14.3426 9.68068V12.7075C14.3426 15.0088 13.1759 15.0088 12.792 15.0088C11.9407 15.0088 11.5578 14.8547 11.3815 14.3274C11.3694 14.2914 11.3563 14.2564 11.3472 14.2173C11.3225 14.1185 11.304 14.0183 11.2918 13.9172C11.2918 13.8892 11.2838 13.8631 11.2807 13.8331C11.2647 13.6801 11.2543 13.5266 11.2495 13.3728V13.3388C11.2435 13.1487 11.2414 12.9386 11.2414 12.7075L11.2404 9.67668ZM9.2395 9.31246C9.2395 9.43354 9.22539 9.5486 9.22539 9.67668V13.0557C9.21606 13.5737 9.26233 14.0913 9.36342 14.5996C9.12109 14.8027 8.82672 14.9351 8.5131 14.9819C8.19948 15.0288 7.87893 14.9882 7.58716 14.8647C7.26886 14.7321 6.99726 14.5087 6.80665 14.2229C6.61604 13.9371 6.51496 13.6016 6.51617 13.2588V10.7463C6.51625 10.5014 6.56864 10.2592 6.6699 10.0358C6.77115 9.81249 6.91895 9.613 7.10355 9.45055C7.19344 9.36748 7.29366 9.29619 7.40178 9.23842C7.4441 9.21441 7.4854 9.18939 7.52974 9.16838C7.6032 9.13589 7.67897 9.1088 7.75643 9.08733C7.79673 9.07232 7.83703 9.06032 7.87834 9.04931C8.11074 8.99528 8.35204 8.9908 8.58632 9.03616C8.8206 9.08152 9.04253 9.17569 9.23748 9.31246H9.2395ZM25.2732 15.9323V15.9293C23.8258 16.8982 22.497 18.0312 21.3136 19.3053C20.7897 19.9677 20.3262 20.6751 19.9273 21.4186C19.2003 22.7778 18.3128 24.0462 17.2835 25.1968C16.4567 26.0629 15.4643 26.7567 14.3645 27.2377C13.2646 27.7188 12.0793 27.9774 10.8777 27.9984C8.62186 28.0542 6.42252 27.2935 4.68954 25.8582C3.83052 25.0846 3.1529 24.1332 2.70446 23.0711C2.25602 22.0091 2.04769 20.8623 2.09417 19.7116V19.2523C2.09417 18.9571 2.08812 18.5349 2.0851 18.0236L2.0579 14.2043C2.03775 11.3627 2.0186 8.35791 2.0186 7.68251C2.00129 7.26556 2.14687 6.85809 2.42492 6.54522C2.70298 6.23235 3.092 6.03827 3.51074 6.00352C3.71657 5.99604 3.92182 6.02955 4.1144 6.10207C4.30699 6.17458 4.48302 6.28465 4.63211 6.42577C4.78836 6.59334 4.90903 6.79045 4.98692 7.00533C5.06481 7.22022 5.09834 7.44848 5.08549 7.6765V8.76114C4.70644 9.35494 4.50453 10.0432 4.50315 10.7463V13.2678C4.50489 13.8165 4.62882 14.3581 4.86606 14.8537C5.1033 15.3493 5.44797 15.7867 5.87539 16.1345C5.86938 16.1649 5.86534 16.1956 5.8633 16.2265C5.88239 16.4911 6.00645 16.7372 6.20822 16.911C6.40999 17.0847 6.67295 17.1718 6.93933 17.1531C8.5869 17.0238 10.2404 16.9847 11.8923 17.036C12.5421 17.063 13.1698 17.114 13.7612 17.1881C13.6958 17.2171 13.6353 17.2411 13.5688 17.2721C11.1991 18.3172 9.13965 19.9497 7.58817 22.0129C7.51097 22.1197 7.4557 22.2405 7.42551 22.3685C7.39532 22.4964 7.39081 22.6291 7.41224 22.7588C7.45551 23.0207 7.60178 23.2549 7.81889 23.4097C8.036 23.5646 8.30616 23.6274 8.56993 23.5845C8.8337 23.5415 9.06947 23.3962 9.22539 23.1806C10.5727 21.3985 12.3579 19.9895 14.4101 19.0882C15.0974 18.7718 15.8065 18.5044 16.5319 18.2877C16.7979 18.2087 17.0095 18.1547 17.1515 18.1206L17.3087 18.0846L17.345 18.0766H17.351C17.5543 18.0374 17.7405 17.9369 17.8842 17.7889C18.028 17.6408 18.1223 17.4524 18.1543 17.2492C18.1864 17.046 18.1546 16.838 18.0633 16.6534C17.972 16.4688 17.8257 16.3166 17.6442 16.2175C17.0117 15.8885 16.3383 15.644 15.6413 15.4901C16.1399 14.6485 16.387 13.6833 16.3536 12.7075V9.67668C16.3912 8.75604 16.1848 7.84173 15.7551 7.02512V3.84626C15.7451 3.37947 15.9171 2.92689 16.2351 2.58306C16.5532 2.23923 16.9927 2.03075 17.4619 2.00117C17.6984 2.00213 17.9322 2.05174 18.1485 2.14688C18.3648 2.24203 18.559 2.38064 18.7186 2.55399C18.8783 2.72733 19.0001 2.93165 19.0764 3.15406C19.1526 3.37647 19.1816 3.61216 19.1615 3.84626V13.3518C19.1434 13.7351 19.2683 14.1103 19.5122 14.4075C19.6629 14.5737 19.858 14.6942 20.0747 14.7551C20.2915 14.816 20.5212 14.8148 20.7373 14.7517C20.9318 14.6946 21.1131 14.6036 21.2743 14.4825C21.3287 14.4435 21.3751 14.4065 21.4053 14.3824L21.4456 14.3454L21.4567 14.3364C22.16 13.7539 22.93 13.2559 23.7508 12.8525C24.1321 12.668 24.5683 12.6285 24.977 12.7415C25.3286 12.8165 25.6459 13.0006 25.8837 13.2678C26.1638 13.656 26.2827 14.1363 26.2172 14.6096C26.2023 14.8079 26.1478 15.0013 26.057 15.1786C25.9662 15.3558 25.8409 15.5134 25.6883 15.6422L25.2732 15.9323Z" fill="#BBA9EF" stroke="black" stroke-width="2" mask="url(#path-1-inside-1_0_59)"/>
</svg>
