<svg width="16" height="20" viewBox="0 0 16 20" fill="none" xmlns="http://www.w3.org/2000/svg">
<path d="M7.53326 8.19992L5.66661 7.29993L3.3333 9.9999M11.2666 16.7345C10.7408 17.4368 10.0493 18.0085 9.24928 18.4024C8.44924 18.7962 7.56354 19.001 6.66527 18.9998C3.53583 18.9998 0.99999 16.5653 0.99999 13.5621C0.99999 12.7746 1.15306 12.0258 1.46665 11.3499M8.60658 6.39994L7.90286 8.06132C7.18793 9.7524 6.83047 10.5975 7.2374 11.1987C7.64433 11.7999 8.57392 11.7999 10.4331 11.7999C11.0808 11.7999 11.7062 11.6379 12.0664 12.2463L14.9999 17.1998M9.86657 4.59996C9.37151 4.59996 8.89672 4.41031 8.54665 4.07275C8.19659 3.73519 7.99992 3.27736 7.99992 2.79997C7.99992 2.32259 8.19659 1.86476 8.54665 1.52719C8.89672 1.18963 9.37151 0.99999 9.86657 0.99999C10.3616 0.99999 10.8364 1.18963 11.1865 1.52719C11.5366 1.86476 11.7332 2.32259 11.7332 2.79997C11.7332 3.27736 11.5366 3.73519 11.1865 4.07275C10.8364 4.41031 10.3616 4.59996 9.86657 4.59996Z" stroke="#E0D9F7" stroke-width="2" stroke-linecap="round" stroke-linejoin="round"/>
</svg>
