<svg width="35" height="34" viewBox="0 0 35 34" fill="none" xmlns="http://www.w3.org/2000/svg">
<mask id="path-1-inside-1_81_522" fill="white">
<path d="M34.0672 13.6715C33.4315 12.9523 32.5488 12.4473 31.56 12.237C30.4612 11.9727 29.2939 12.0832 28.2787 12.5477C27.5774 12.878 26.8967 13.2433 26.2398 13.642V4.35909C26.2643 3.79595 26.1636 3.2341 25.9436 2.70711C25.7237 2.18012 25.389 1.69881 24.9597 1.29192C24.5303 0.885027 24.015 0.560914 23.4447 0.338942C22.8743 0.116971 22.2605 0.00169411 21.64 0C20.3965 0.0332205 19.217 0.508696 18.3558 1.32402C17.4945 2.13935 17.0202 3.22928 17.0352 4.35909V6.22906C16.6488 6.14371 16.2529 6.09882 15.8553 6.09524C15.5531 6.09524 15.2522 6.11792 14.955 6.16442L14.8564 6.17803C14.5917 6.22339 14.332 6.29143 14.0823 6.37874C14.0336 6.39575 13.9886 6.41617 13.9412 6.43544C13.7284 6.51732 13.5248 6.61757 13.3331 6.73482C13.2832 6.7643 13.237 6.79946 13.1895 6.83121C13.006 6.95368 12.8362 7.09203 12.6826 7.24512C12.6664 7.26099 12.6464 7.2712 12.6302 7.28821C12.5914 7.3279 12.5677 7.37439 12.5315 7.41522C12.3073 7.67349 12.1202 7.95662 11.9746 8.25778C11.1026 7.92346 10.1358 7.85114 9.21526 8.05139C9.11038 8.07294 9.01299 8.10922 8.91185 8.13757L8.74829 8.18293C8.66399 7.24617 8.22549 6.36474 7.50719 5.68814C7.09114 5.31601 6.59792 5.02256 6.0561 4.82479C5.51428 4.62702 4.93464 4.52886 4.35076 4.536C3.1695 4.57388 2.05183 5.03144 1.23827 5.8102C0.424713 6.58896 -0.0197 7.62668 0.000670619 8.70004C0.000670619 9.47569 0.0243937 12.8958 0.0493655 16.1073L0.0830777 20.4369C0.0830777 21.0153 0.090569 21.4949 0.0943147 21.8283V22.3511C0.0391999 23.9753 0.374338 25.5909 1.07642 27.0855C1.7785 28.5802 2.83066 29.9179 4.15972 31.0058C6.76312 32.9978 10.0758 34.0611 13.4792 33.9973C15.3045 33.9735 17.1061 33.6189 18.7785 32.9543C20.4509 32.2896 21.9603 31.3284 23.2182 30.1269C24.6329 28.6928 25.8532 27.1098 26.8528 25.4118C27.2699 24.6974 27.7506 24.0136 28.29 23.3706C29.6305 22.0591 31.1338 20.8931 32.7699 19.896C32.9522 19.7826 33.1283 19.6624 33.2918 19.5558C33.7581 19.2284 34.1463 18.8183 34.4329 18.3504C34.7194 17.8826 34.8983 17.3667 34.9587 16.8342C35.1209 15.715 34.8016 14.5822 34.0672 13.6715ZM13.9299 10.9669C13.9287 10.7061 13.9424 10.4464 13.9724 10.1878C13.9724 10.13 13.9911 10.0835 13.9986 10.0291C14.0198 9.89074 14.0448 9.76033 14.0748 9.64353C14.1161 9.48479 14.1725 9.32961 14.2433 9.17972C14.2633 9.1389 14.2833 9.09354 14.3045 9.05725C14.3632 8.95292 14.4369 8.85653 14.523 8.76921L14.543 8.7522C14.6075 8.69277 14.6796 8.64061 14.7578 8.59684C14.8339 8.55107 14.9156 8.5134 15.0012 8.48458C15.1061 8.44829 15.2147 8.42107 15.3259 8.40293H15.3533C15.5185 8.37883 15.6855 8.36707 15.8528 8.36778C16.0978 8.35072 16.3438 8.38477 16.5721 8.46732C16.8005 8.54987 17.005 8.67873 17.17 8.84406C17.6432 9.46549 17.8568 10.2196 17.7743 10.9714V14.4018C17.7743 17.01 16.3285 17.01 15.8528 17.01C14.7977 17.01 14.3232 16.8353 14.1047 16.2377C14.0898 16.1969 14.0735 16.1572 14.0623 16.113C14.0317 16.001 14.0088 15.8874 13.9936 15.7728C13.9936 15.741 13.9836 15.7116 13.9799 15.6775C13.96 15.5041 13.9471 15.3301 13.9412 15.1559V15.1173C13.9337 14.9019 13.9312 14.6637 13.9312 14.4018L13.9299 10.9669ZM11.4502 10.5541C11.4502 10.6913 11.4328 10.8217 11.4328 10.9669V14.7964C11.4212 15.3835 11.4785 15.9701 11.6038 16.5462C11.3035 16.7764 10.9387 16.9265 10.55 16.9795C10.1614 17.0326 9.76413 16.9866 9.40255 16.8467C9.00808 16.6963 8.6715 16.4432 8.43528 16.1193C8.19906 15.7954 8.0738 15.4151 8.0753 15.0266V12.1791C8.0754 11.9015 8.14033 11.6271 8.26581 11.374C8.39129 11.1208 8.57446 10.8947 8.80323 10.7106C8.91461 10.6165 9.03882 10.5357 9.17281 10.4702C9.22525 10.443 9.27644 10.4146 9.33138 10.3908C9.42242 10.354 9.51632 10.3233 9.61231 10.299C9.66226 10.282 9.7122 10.2684 9.76339 10.2559C10.0514 10.1947 10.3504 10.1896 10.6408 10.241C10.9311 10.2924 11.2061 10.3991 11.4477 10.5541H11.4502ZM31.3203 18.0567V18.0533C29.5267 19.1513 27.8799 20.4353 26.4133 21.8794C25.7641 22.6301 25.1897 23.4318 24.6953 24.2744C23.7944 25.8149 22.6945 27.2523 21.419 28.5564C20.3943 29.5379 19.1645 30.3243 17.8015 30.8694C16.4385 31.4146 14.9695 31.7077 13.4804 31.7316C10.6848 31.7948 7.95924 30.9327 5.81161 29.3059C4.74706 28.4292 3.90729 27.3509 3.35155 26.1473C2.79582 24.9436 2.53764 23.6439 2.59524 22.3398V21.8193C2.59524 21.4847 2.58775 21.0062 2.584 20.4267L2.55029 16.0982C2.52532 12.8777 2.5016 9.47229 2.5016 8.70684C2.48014 8.2343 2.66055 7.7725 3.00514 7.41791C3.34972 7.06332 3.83183 6.84337 4.35076 6.80399C4.60583 6.79552 4.8602 6.83349 5.09886 6.91567C5.33753 6.99786 5.55567 7.1226 5.74044 7.28254C5.93407 7.47246 6.08361 7.69584 6.18014 7.93938C6.27668 8.18291 6.31822 8.44161 6.3023 8.70004V9.92929C5.83255 10.6023 5.58233 11.3823 5.58062 12.1791V15.0368C5.58278 15.6587 5.73636 16.2725 6.03036 16.8342C6.32437 17.3959 6.75151 17.8916 7.2812 18.2857C7.27376 18.3202 7.26875 18.355 7.26621 18.3901C7.28988 18.6899 7.44362 18.9689 7.69367 19.1658C7.94371 19.3627 8.26959 19.4613 8.59971 19.4401C10.6415 19.2937 12.6906 19.2494 14.7378 19.3075C15.5431 19.3381 16.321 19.3959 17.0539 19.4798C16.9727 19.5127 16.8978 19.5399 16.8154 19.5751C13.8787 20.7595 11.3265 22.6097 9.4038 24.948C9.30812 25.069 9.23963 25.2059 9.20222 25.3509C9.16481 25.496 9.15922 25.6463 9.18577 25.7933C9.23939 26.0902 9.42067 26.3555 9.68973 26.531C9.95878 26.7065 10.2936 26.7778 10.6205 26.7291C10.9473 26.6804 11.2395 26.5157 11.4328 26.2713C13.1025 24.2517 15.3147 22.6548 17.858 21.6333C18.7098 21.2748 19.5885 20.9716 20.4875 20.7261C20.8172 20.6365 21.0794 20.5753 21.2554 20.5367L21.4502 20.4959L21.4951 20.4868H21.5026C21.7546 20.4424 21.9853 20.3285 22.1634 20.1607C22.3415 19.9929 22.4584 19.7794 22.4981 19.5491C22.5378 19.3188 22.4984 19.083 22.3853 18.8738C22.2722 18.6646 22.0909 18.4921 21.866 18.3799C21.0821 18.007 20.2475 17.7298 19.3838 17.5554C20.0017 16.6016 20.3079 15.5078 20.2665 14.4018V10.9669C20.3131 9.92351 20.0574 8.88729 19.5249 7.96181V4.35909C19.5124 3.83007 19.7255 3.31714 20.1197 2.92747C20.5138 2.53779 21.0585 2.30152 21.64 2.268C21.9332 2.26908 22.2229 2.3253 22.491 2.43313C22.759 2.54096 22.9996 2.69806 23.1975 2.89452C23.3954 3.09098 23.5463 3.32254 23.6408 3.5746C23.7352 3.82667 23.7712 4.09378 23.7463 4.35909V15.1321C23.7239 15.5664 23.8787 15.9917 24.1809 16.3284C24.3677 16.5168 24.6094 16.6534 24.878 16.7225C25.1467 16.7915 25.4313 16.7901 25.6991 16.7185C25.9401 16.6539 26.1649 16.5507 26.3646 16.4135C26.4321 16.3693 26.4895 16.3273 26.527 16.3001L26.5769 16.2581L26.5906 16.2479C27.4622 15.5878 28.4165 15.0233 29.4337 14.5662C29.9062 14.357 30.4468 14.3123 30.9532 14.4403C31.389 14.5254 31.7823 14.734 32.0769 15.0368C32.424 15.4768 32.5714 16.0211 32.4902 16.5575C32.4717 16.7823 32.4042 17.0015 32.2917 17.2024C32.1792 17.4033 32.0238 17.5819 31.8347 17.7278L31.3203 18.0567Z"/>
</mask>
<path d="M34.0672 13.6715C33.4315 12.9523 32.5488 12.4473 31.56 12.237C30.4612 11.9727 29.2939 12.0832 28.2787 12.5477C27.5774 12.878 26.8967 13.2433 26.2398 13.642V4.35909C26.2643 3.79595 26.1636 3.2341 25.9436 2.70711C25.7237 2.18012 25.389 1.69881 24.9597 1.29192C24.5303 0.885027 24.015 0.560914 23.4447 0.338942C22.8743 0.116971 22.2605 0.00169411 21.64 0C20.3965 0.0332205 19.217 0.508696 18.3558 1.32402C17.4945 2.13935 17.0202 3.22928 17.0352 4.35909V6.22906C16.6488 6.14371 16.2529 6.09882 15.8553 6.09524C15.5531 6.09524 15.2522 6.11792 14.955 6.16442L14.8564 6.17803C14.5917 6.22339 14.332 6.29143 14.0823 6.37874C14.0336 6.39575 13.9886 6.41617 13.9412 6.43544C13.7284 6.51732 13.5248 6.61757 13.3331 6.73482C13.2832 6.7643 13.237 6.79946 13.1895 6.83121C13.006 6.95368 12.8362 7.09203 12.6826 7.24512C12.6664 7.26099 12.6464 7.2712 12.6302 7.28821C12.5914 7.3279 12.5677 7.37439 12.5315 7.41522C12.3073 7.67349 12.1202 7.95662 11.9746 8.25778C11.1026 7.92346 10.1358 7.85114 9.21526 8.05139C9.11038 8.07294 9.01299 8.10922 8.91185 8.13757L8.74829 8.18293C8.66399 7.24617 8.22549 6.36474 7.50719 5.68814C7.09114 5.31601 6.59792 5.02256 6.0561 4.82479C5.51428 4.62702 4.93464 4.52886 4.35076 4.536C3.1695 4.57388 2.05183 5.03144 1.23827 5.8102C0.424713 6.58896 -0.0197 7.62668 0.000670619 8.70004C0.000670619 9.47569 0.0243937 12.8958 0.0493655 16.1073L0.0830777 20.4369C0.0830777 21.0153 0.090569 21.4949 0.0943147 21.8283V22.3511C0.0391999 23.9753 0.374338 25.5909 1.07642 27.0855C1.7785 28.5802 2.83066 29.9179 4.15972 31.0058C6.76312 32.9978 10.0758 34.0611 13.4792 33.9973C15.3045 33.9735 17.1061 33.6189 18.7785 32.9543C20.4509 32.2896 21.9603 31.3284 23.2182 30.1269C24.6329 28.6928 25.8532 27.1098 26.8528 25.4118C27.2699 24.6974 27.7506 24.0136 28.29 23.3706C29.6305 22.0591 31.1338 20.8931 32.7699 19.896C32.9522 19.7826 33.1283 19.6624 33.2918 19.5558C33.7581 19.2284 34.1463 18.8183 34.4329 18.3504C34.7194 17.8826 34.8983 17.3667 34.9587 16.8342C35.1209 15.715 34.8016 14.5822 34.0672 13.6715ZM13.9299 10.9669C13.9287 10.7061 13.9424 10.4464 13.9724 10.1878C13.9724 10.13 13.9911 10.0835 13.9986 10.0291C14.0198 9.89074 14.0448 9.76033 14.0748 9.64353C14.1161 9.48479 14.1725 9.32961 14.2433 9.17972C14.2633 9.1389 14.2833 9.09354 14.3045 9.05725C14.3632 8.95292 14.4369 8.85653 14.523 8.76921L14.543 8.7522C14.6075 8.69277 14.6796 8.64061 14.7578 8.59684C14.8339 8.55107 14.9156 8.5134 15.0012 8.48458C15.1061 8.44829 15.2147 8.42107 15.3259 8.40293H15.3533C15.5185 8.37883 15.6855 8.36707 15.8528 8.36778C16.0978 8.35072 16.3438 8.38477 16.5721 8.46732C16.8005 8.54987 17.005 8.67873 17.17 8.84406C17.6432 9.46549 17.8568 10.2196 17.7743 10.9714V14.4018C17.7743 17.01 16.3285 17.01 15.8528 17.01C14.7977 17.01 14.3232 16.8353 14.1047 16.2377C14.0898 16.1969 14.0735 16.1572 14.0623 16.113C14.0317 16.001 14.0088 15.8874 13.9936 15.7728C13.9936 15.741 13.9836 15.7116 13.9799 15.6775C13.96 15.5041 13.9471 15.3301 13.9412 15.1559V15.1173C13.9337 14.9019 13.9312 14.6637 13.9312 14.4018L13.9299 10.9669ZM11.4502 10.5541C11.4502 10.6913 11.4328 10.8217 11.4328 10.9669V14.7964C11.4212 15.3835 11.4785 15.9701 11.6038 16.5462C11.3035 16.7764 10.9387 16.9265 10.55 16.9795C10.1614 17.0326 9.76413 16.9866 9.40255 16.8467C9.00808 16.6963 8.6715 16.4432 8.43528 16.1193C8.19906 15.7954 8.0738 15.4151 8.0753 15.0266V12.1791C8.0754 11.9015 8.14033 11.6271 8.26581 11.374C8.39129 11.1208 8.57446 10.8947 8.80323 10.7106C8.91461 10.6165 9.03882 10.5357 9.17281 10.4702C9.22525 10.443 9.27644 10.4146 9.33138 10.3908C9.42242 10.354 9.51632 10.3233 9.61231 10.299C9.66226 10.282 9.7122 10.2684 9.76339 10.2559C10.0514 10.1947 10.3504 10.1896 10.6408 10.241C10.9311 10.2924 11.2061 10.3991 11.4477 10.5541H11.4502ZM31.3203 18.0567V18.0533C29.5267 19.1513 27.8799 20.4353 26.4133 21.8794C25.7641 22.6301 25.1897 23.4318 24.6953 24.2744C23.7944 25.8149 22.6945 27.2523 21.419 28.5564C20.3943 29.5379 19.1645 30.3243 17.8015 30.8694C16.4385 31.4146 14.9695 31.7077 13.4804 31.7316C10.6848 31.7948 7.95924 30.9327 5.81161 29.3059C4.74706 28.4292 3.90729 27.3509 3.35155 26.1473C2.79582 24.9436 2.53764 23.6439 2.59524 22.3398V21.8193C2.59524 21.4847 2.58775 21.0062 2.584 20.4267L2.55029 16.0982C2.52532 12.8777 2.5016 9.47229 2.5016 8.70684C2.48014 8.2343 2.66055 7.7725 3.00514 7.41791C3.34972 7.06332 3.83183 6.84337 4.35076 6.80399C4.60583 6.79552 4.8602 6.83349 5.09886 6.91567C5.33753 6.99786 5.55567 7.1226 5.74044 7.28254C5.93407 7.47246 6.08361 7.69584 6.18014 7.93938C6.27668 8.18291 6.31822 8.44161 6.3023 8.70004V9.92929C5.83255 10.6023 5.58233 11.3823 5.58062 12.1791V15.0368C5.58278 15.6587 5.73636 16.2725 6.03036 16.8342C6.32437 17.3959 6.75151 17.8916 7.2812 18.2857C7.27376 18.3202 7.26875 18.355 7.26621 18.3901C7.28988 18.6899 7.44362 18.9689 7.69367 19.1658C7.94371 19.3627 8.26959 19.4613 8.59971 19.4401C10.6415 19.2937 12.6906 19.2494 14.7378 19.3075C15.5431 19.3381 16.321 19.3959 17.0539 19.4798C16.9727 19.5127 16.8978 19.5399 16.8154 19.5751C13.8787 20.7595 11.3265 22.6097 9.4038 24.948C9.30812 25.069 9.23963 25.2059 9.20222 25.3509C9.16481 25.496 9.15922 25.6463 9.18577 25.7933C9.23939 26.0902 9.42067 26.3555 9.68973 26.531C9.95878 26.7065 10.2936 26.7778 10.6205 26.7291C10.9473 26.6804 11.2395 26.5157 11.4328 26.2713C13.1025 24.2517 15.3147 22.6548 17.858 21.6333C18.7098 21.2748 19.5885 20.9716 20.4875 20.7261C20.8172 20.6365 21.0794 20.5753 21.2554 20.5367L21.4502 20.4959L21.4951 20.4868H21.5026C21.7546 20.4424 21.9853 20.3285 22.1634 20.1607C22.3415 19.9929 22.4584 19.7794 22.4981 19.5491C22.5378 19.3188 22.4984 19.083 22.3853 18.8738C22.2722 18.6646 22.0909 18.4921 21.866 18.3799C21.0821 18.007 20.2475 17.7298 19.3838 17.5554C20.0017 16.6016 20.3079 15.5078 20.2665 14.4018V10.9669C20.3131 9.92351 20.0574 8.88729 19.5249 7.96181V4.35909C19.5124 3.83007 19.7255 3.31714 20.1197 2.92747C20.5138 2.53779 21.0585 2.30152 21.64 2.268C21.9332 2.26908 22.2229 2.3253 22.491 2.43313C22.759 2.54096 22.9996 2.69806 23.1975 2.89452C23.3954 3.09098 23.5463 3.32254 23.6408 3.5746C23.7352 3.82667 23.7712 4.09378 23.7463 4.35909V15.1321C23.7239 15.5664 23.8787 15.9917 24.1809 16.3284C24.3677 16.5168 24.6094 16.6534 24.878 16.7225C25.1467 16.7915 25.4313 16.7901 25.6991 16.7185C25.9401 16.6539 26.1649 16.5507 26.3646 16.4135C26.4321 16.3693 26.4895 16.3273 26.527 16.3001L26.5769 16.2581L26.5906 16.2479C27.4622 15.5878 28.4165 15.0233 29.4337 14.5662C29.9062 14.357 30.4468 14.3123 30.9532 14.4403C31.389 14.5254 31.7823 14.734 32.0769 15.0368C32.424 15.4768 32.5714 16.0211 32.4902 16.5575C32.4717 16.7823 32.4042 17.0015 32.2917 17.2024C32.1792 17.4033 32.0238 17.5819 31.8347 17.7278L31.3203 18.0567Z" fill="#8684F5" stroke="#BBA9EF" stroke-width="2" mask="url(#path-1-inside-1_81_522)"/>
</svg>
