<svg width="27" height="23" viewBox="0 0 27 23" fill="none" xmlns="http://www.w3.org/2000/svg">
<path d="M13.101 3.16385L13.5 3.69208L13.899 3.16385C15.156 1.49969 17.1825 0.500076 19.5265 0.5C21.3763 0.502149 23.1491 1.23358 24.4562 2.53291C25.7632 3.83221 26.4979 5.59321 26.5 7.4294C26.4997 11.3877 23.5299 15.0519 20.3499 17.8202C17.1967 20.5653 13.9735 22.3118 13.724 22.4431L13.721 22.4447C13.6533 22.4809 13.5773 22.5 13.5 22.5C13.4227 22.5 13.3467 22.4809 13.279 22.4447L13.276 22.4431C13.0265 22.3118 9.8033 20.5653 6.6501 17.8202C3.47007 15.0518 0.500139 11.3875 0.5 7.42911C0.502158 5.59302 1.23683 3.83214 2.54382 2.53291C3.85091 1.23358 5.62371 0.502149 7.47348 0.5C9.8175 0.500077 11.844 1.49969 13.101 3.16385ZM13.2494 21.3772L13.5003 21.5225L13.751 21.377C14.8632 20.7314 17.7921 18.937 20.4493 16.4844C23.0808 14.0555 25.5714 10.8672 25.5714 7.42883V7.42818C25.5693 5.83362 24.9312 4.30557 23.7978 3.17896C22.6646 2.05245 21.1288 1.41919 19.5274 1.41712H19.5268C17.003 1.41712 14.8374 2.75655 13.9297 4.96163C13.8951 5.04526 13.8361 5.11726 13.7597 5.16817C13.6831 5.21918 13.5927 5.24659 13.5 5.24659C13.4073 5.24659 13.3169 5.21918 13.2403 5.16817C13.1638 5.11719 13.1047 5.04507 13.0701 4.9613C12.1626 2.76048 9.99749 1.41712 7.47321 1.41712L7.47257 1.41712C5.8712 1.41919 4.33542 2.05245 3.20217 3.17896C2.06883 4.30557 1.43066 5.83362 1.42857 7.42818V7.42883C1.42857 10.8718 3.91838 14.0604 6.54985 16.4885C9.20684 18.9401 12.1358 20.7322 13.2494 21.3772Z" fill="#E0D9F7" stroke="#BBA9EF"/>
</svg>
